# MagicaVoxel @ Ephtracy

# group
g Viselitsa_5_mistake

# material
mtllib Viselitsa_5_mistake.mtl
usemtl palette

# normals
vn -1 0 0
vn 1 0 0
vn 0 0 1
vn 0 0 -1
vn 0 -1 0
vn 0 1 0

# texcoords
vt 0.970703 0.5
vt 0.974609 0.5
vt 0.978516 0.5
vt 0.990234 0.5

# verts
v -6 19 -1
v -6 19 -2
v -6 22 -1
v -6 22 -2
v -5 11 -1
v -5 11 -2
v -5 15 -1
v -5 15 -2
v -5 18 -1
v -5 18 -2
v -5 19 -1
v -5 19 -2
v -5 22 -1
v -5 22 -2
v -5 23 -1
v -5 23 -2
v -4 5 -1
v -4 5 -2
v -4 10 -1
v -4 10 -2
v -4 15 -1
v -4 15 -2
v -4 16 -1
v -4 16 -2
v -4 17 -1
v -4 17 -2
v -4 18 -1
v -4 18 -2
v -4 23 -1
v -4 23 -2
v -4 24 -1
v -4 24 -2
v -3 10 -1
v -3 10 -2
v -3 15 -1
v -3 15 -2
v -3 16 -1
v -3 16 -2
v -3 17 -1
v -3 17 -2
v -3 24 -1
v -3 24 -2
v -3 26 -0
v -3 26 -1
v -3 26 -2
v -3 26 -3
v -3 27 -0
v -3 27 -3
v -1 11 -1
v -1 11 -2
v -1 15 -1
v -1 15 -2
v -1 18 -1
v -1 18 -2
v -1 19 -1
v -1 19 -2
v -1 22 -1
v -1 22 -2
v -1 23 -1
v -1 23 -2
v 0 19 -1
v 0 19 -2
v 0 22 -1
v 0 22 -2
v 3 25 -0
v 3 25 -3
v 3 26 -0
v 3 26 -3
v 4 24 -0
v 4 24 -3
v 4 25 -0
v 4 25 -3
v 5 23 -0
v 5 23 -3
v 5 24 -0
v 5 24 -3
v 6 0 -0
v 6 0 -3
v 6 1 -0
v 6 1 -3
v 6 22 -0
v 6 22 -3
v 6 23 -0
v 6 23 -3
v 7 1 -0
v 7 1 -3
v 7 2 -0
v 7 2 -3
v 7 21 -0
v 7 21 -3
v 7 22 -0
v 7 22 -3
v 8 0 2
v 8 0 -0
v 8 0 -3
v 8 0 -5
v 8 1 2
v 8 1 1
v 8 1 -4
v 8 1 -5
v 8 2 1
v 8 2 -0
v 8 2 -3
v 8 2 -4
v 8 21 -0
v 8 21 -3
v 8 23 -0
v 8 23 -3
v 8 26 -0
v 8 26 -3
v -5 19 -1
v -5 19 -2
v -5 22 -1
v -5 22 -2
v -4 11 -1
v -4 11 -2
v -4 15 -1
v -4 15 -2
v -4 18 -1
v -4 18 -2
v -4 19 -1
v -4 19 -2
v -4 22 -1
v -4 22 -2
v -4 23 -1
v -4 23 -2
v -3 5 -1
v -3 5 -2
v -3 9 -1
v -3 9 -2
v -2 9 -1
v -2 9 -2
v -2 15 -1
v -2 15 -2
v -2 16 -1
v -2 16 -2
v -2 17 -1
v -2 17 -2
v -2 24 -1
v -2 24 -2
v -2 26 -1
v -2 26 -2
v -1 15 -1
v -1 15 -2
v -1 16 -1
v -1 16 -2
v -1 17 -1
v -1 17 -2
v -1 18 -1
v -1 18 -2
v -1 23 -1
v -1 23 -2
v -1 24 -1
v -1 24 -2
v 0 11 -1
v 0 11 -2
v 0 15 -1
v 0 15 -2
v 0 18 -1
v 0 18 -2
v 0 19 -1
v 0 19 -2
v 0 22 -1
v 0 22 -2
v 0 23 -1
v 0 23 -2
v 1 19 -1
v 1 19 -2
v 1 22 -1
v 1 22 -2
v 5 25 -0
v 5 25 -3
v 5 26 -0
v 5 26 -3
v 6 24 -0
v 6 24 -3
v 6 25 -0
v 6 25 -3
v 7 23 -0
v 7 23 -3
v 7 24 -0
v 7 24 -3
v 11 0 2
v 11 0 -0
v 11 0 -3
v 11 0 -5
v 11 1 2
v 11 1 1
v 11 1 -4
v 11 1 -5
v 11 2 1
v 11 2 -0
v 11 2 -3
v 11 2 -4
v 11 27 -0
v 11 27 -3
v 12 1 -0
v 12 1 -3
v 12 2 -0
v 12 2 -3
v 13 0 -0
v 13 0 -3
v 13 1 -0
v 13 1 -3
v 8 0 2
v 8 1 2
v 11 0 2
v 11 1 2
v 8 1 1
v 8 2 1
v 11 1 1
v 11 2 1
v -3 26 -0
v -3 27 -0
v 3 25 -0
v 3 26 -0
v 4 24 -0
v 4 25 -0
v 5 23 -0
v 5 24 -0
v 5 25 -0
v 5 26 -0
v 6 0 -0
v 6 1 -0
v 6 22 -0
v 6 23 -0
v 6 24 -0
v 6 25 -0
v 7 1 -0
v 7 2 -0
v 7 21 -0
v 7 22 -0
v 7 23 -0
v 7 24 -0
v 8 0 -0
v 8 2 -0
v 8 21 -0
v 8 23 -0
v 8 26 -0
v 11 0 -0
v 11 2 -0
v 11 27 -0
v 12 1 -0
v 12 2 -0
v 13 0 -0
v 13 1 -0
v -6 19 -1
v -6 22 -1
v -5 11 -1
v -5 15 -1
v -5 18 -1
v -5 19 -1
v -5 22 -1
v -5 23 -1
v -4 5 -1
v -4 10 -1
v -4 11 -1
v -4 15 -1
v -4 16 -1
v -4 17 -1
v -4 18 -1
v -4 19 -1
v -4 22 -1
v -4 23 -1
v -4 24 -1
v -3 5 -1
v -3 9 -1
v -3 10 -1
v -3 15 -1
v -3 16 -1
v -3 17 -1
v -3 24 -1
v -3 26 -1
v -2 9 -1
v -2 15 -1
v -2 16 -1
v -2 17 -1
v -2 24 -1
v -2 26 -1
v -1 11 -1
v -1 15 -1
v -1 16 -1
v -1 17 -1
v -1 18 -1
v -1 19 -1
v -1 22 -1
v -1 23 -1
v -1 24 -1
v 0 11 -1
v 0 15 -1
v 0 18 -1
v 0 19 -1
v 0 22 -1
v 0 23 -1
v 1 19 -1
v 1 22 -1
v -6 19 -2
v -6 22 -2
v -5 11 -2
v -5 15 -2
v -5 18 -2
v -5 19 -2
v -5 22 -2
v -5 23 -2
v -4 5 -2
v -4 10 -2
v -4 11 -2
v -4 15 -2
v -4 16 -2
v -4 17 -2
v -4 18 -2
v -4 19 -2
v -4 22 -2
v -4 23 -2
v -4 24 -2
v -3 5 -2
v -3 9 -2
v -3 10 -2
v -3 15 -2
v -3 16 -2
v -3 17 -2
v -3 24 -2
v -3 26 -2
v -2 9 -2
v -2 15 -2
v -2 16 -2
v -2 17 -2
v -2 24 -2
v -2 26 -2
v -1 11 -2
v -1 15 -2
v -1 16 -2
v -1 17 -2
v -1 18 -2
v -1 19 -2
v -1 22 -2
v -1 23 -2
v -1 24 -2
v 0 11 -2
v 0 15 -2
v 0 18 -2
v 0 19 -2
v 0 22 -2
v 0 23 -2
v 1 19 -2
v 1 22 -2
v -3 26 -3
v -3 27 -3
v 3 25 -3
v 3 26 -3
v 4 24 -3
v 4 25 -3
v 5 23 -3
v 5 24 -3
v 5 25 -3
v 5 26 -3
v 6 0 -3
v 6 1 -3
v 6 22 -3
v 6 23 -3
v 6 24 -3
v 6 25 -3
v 7 1 -3
v 7 2 -3
v 7 21 -3
v 7 22 -3
v 7 23 -3
v 7 24 -3
v 8 0 -3
v 8 2 -3
v 8 21 -3
v 8 23 -3
v 8 26 -3
v 11 0 -3
v 11 2 -3
v 11 27 -3
v 12 1 -3
v 12 2 -3
v 13 0 -3
v 13 1 -3
v 8 1 -4
v 8 2 -4
v 11 1 -4
v 11 2 -4
v 8 0 -5
v 8 1 -5
v 11 0 -5
v 11 1 -5
v 8 0 2
v 11 0 2
v 6 0 -0
v 8 0 -0
v 11 0 -0
v 13 0 -0
v 6 0 -3
v 8 0 -3
v 11 0 -3
v 13 0 -3
v 8 0 -5
v 11 0 -5
v -4 5 -1
v -3 5 -1
v -4 5 -2
v -3 5 -2
v -3 9 -1
v -2 9 -1
v -3 9 -2
v -2 9 -2
v -5 11 -1
v -4 11 -1
v -1 11 -1
v 0 11 -1
v -5 11 -2
v -4 11 -2
v -1 11 -2
v 0 11 -2
v -4 15 -1
v -3 15 -1
v -2 15 -1
v -1 15 -1
v -4 15 -2
v -3 15 -2
v -2 15 -2
v -1 15 -2
v -4 17 -1
v -3 17 -1
v -2 17 -1
v -1 17 -1
v -4 17 -2
v -3 17 -2
v -2 17 -2
v -1 17 -2
v -5 18 -1
v -4 18 -1
v -1 18 -1
v 0 18 -1
v -5 18 -2
v -4 18 -2
v -1 18 -2
v 0 18 -2
v -6 19 -1
v -5 19 -1
v 0 19 -1
v 1 19 -1
v -6 19 -2
v -5 19 -2
v 0 19 -2
v 1 19 -2
v 7 21 -0
v 8 21 -0
v 7 21 -3
v 8 21 -3
v 6 22 -0
v 7 22 -0
v -5 22 -1
v -4 22 -1
v -1 22 -1
v 0 22 -1
v -5 22 -2
v -4 22 -2
v -1 22 -2
v 0 22 -2
v 6 22 -3
v 7 22 -3
v 5 23 -0
v 6 23 -0
v -4 23 -1
v -1 23 -1
v -4 23 -2
v -1 23 -2
v 5 23 -3
v 6 23 -3
v 4 24 -0
v 5 24 -0
v 4 24 -3
v 5 24 -3
v 3 25 -0
v 4 25 -0
v 3 25 -3
v 4 25 -3
v -3 26 -0
v 3 26 -0
v 5 26 -0
v 8 26 -0
v -3 26 -1
v -2 26 -1
v -3 26 -2
v -2 26 -2
v -3 26 -3
v 3 26 -3
v 5 26 -3
v 8 26 -3
v 8 1 2
v 11 1 2
v 8 1 1
v 11 1 1
v 6 1 -0
v 7 1 -0
v 12 1 -0
v 13 1 -0
v 6 1 -3
v 7 1 -3
v 12 1 -3
v 13 1 -3
v 8 1 -4
v 11 1 -4
v 8 1 -5
v 11 1 -5
v 8 2 1
v 11 2 1
v 7 2 -0
v 8 2 -0
v 11 2 -0
v 12 2 -0
v 7 2 -3
v 8 2 -3
v 11 2 -3
v 12 2 -3
v 8 2 -4
v 11 2 -4
v -4 10 -1
v -3 10 -1
v -4 10 -2
v -3 10 -2
v -5 15 -1
v -4 15 -1
v -1 15 -1
v 0 15 -1
v -5 15 -2
v -4 15 -2
v -1 15 -2
v 0 15 -2
v -4 16 -1
v -3 16 -1
v -2 16 -1
v -1 16 -1
v -4 16 -2
v -3 16 -2
v -2 16 -2
v -1 16 -2
v -4 18 -1
v -1 18 -1
v -4 18 -2
v -1 18 -2
v -5 19 -1
v -4 19 -1
v -1 19 -1
v 0 19 -1
v -5 19 -2
v -4 19 -2
v -1 19 -2
v 0 19 -2
v -6 22 -1
v -5 22 -1
v 0 22 -1
v 1 22 -1
v -6 22 -2
v -5 22 -2
v 0 22 -2
v 1 22 -2
v 7 23 -0
v 8 23 -0
v -5 23 -1
v -4 23 -1
v -1 23 -1
v 0 23 -1
v -5 23 -2
v -4 23 -2
v -1 23 -2
v 0 23 -2
v 7 23 -3
v 8 23 -3
v 6 24 -0
v 7 24 -0
v -4 24 -1
v -3 24 -1
v -2 24 -1
v -1 24 -1
v -4 24 -2
v -3 24 -2
v -2 24 -2
v -1 24 -2
v 6 24 -3
v 7 24 -3
v 5 25 -0
v 6 25 -0
v 5 25 -3
v 6 25 -3
v -3 27 -0
v 11 27 -0
v -3 27 -3
v 11 27 -3

# faces
f 3/1/1 2/1/1 1/1/1
f 4/1/1 2/1/1 3/1/1
f 7/1/1 6/1/1 5/1/1
f 8/1/1 6/1/1 7/1/1
f 11/1/1 10/1/1 9/1/1
f 12/1/1 10/1/1 11/1/1
f 15/1/1 14/1/1 13/1/1
f 16/1/1 14/1/1 15/1/1
f 19/1/1 18/1/1 17/1/1
f 20/1/1 18/1/1 19/1/1
f 23/1/1 22/1/1 21/1/1
f 24/1/1 22/1/1 23/1/1
f 27/1/1 26/1/1 25/1/1
f 28/1/1 26/1/1 27/1/1
f 31/1/1 30/1/1 29/1/1
f 32/1/1 30/1/1 31/1/1
f 35/1/1 34/1/1 33/1/1
f 36/1/1 34/1/1 35/1/1
f 39/2/1 38/2/1 37/2/1
f 40/2/1 38/2/1 39/2/1
f 44/2/1 42/2/1 41/2/1
f 45/2/1 42/2/1 44/2/1
f 47/1/1 45/1/1 44/1/1
f 47/1/1 46/1/1 45/1/1
f 47/1/1 44/1/1 43/1/1
f 48/1/1 46/1/1 47/1/1
f 51/1/1 50/1/1 49/1/1
f 52/1/1 50/1/1 51/1/1
f 55/1/1 54/1/1 53/1/1
f 56/1/1 54/1/1 55/1/1
f 59/1/1 58/1/1 57/1/1
f 60/1/1 58/1/1 59/1/1
f 63/1/1 62/1/1 61/1/1
f 64/1/1 62/1/1 63/1/1
f 67/1/1 66/1/1 65/1/1
f 68/1/1 66/1/1 67/1/1
f 71/1/1 70/1/1 69/1/1
f 72/1/1 70/1/1 71/1/1
f 75/1/1 74/1/1 73/1/1
f 76/1/1 74/1/1 75/1/1
f 79/4/1 78/4/1 77/4/1
f 80/4/1 78/4/1 79/4/1
f 83/1/1 82/1/1 81/1/1
f 84/1/1 82/1/1 83/1/1
f 87/4/1 86/4/1 85/4/1
f 88/4/1 86/4/1 87/4/1
f 91/1/1 90/1/1 89/1/1
f 92/1/1 90/1/1 91/1/1
f 97/4/1 94/4/1 93/4/1
f 98/4/1 94/4/1 97/4/1
f 99/4/1 96/4/1 95/4/1
f 100/4/1 96/4/1 99/4/1
f 101/4/1 94/4/1 98/4/1
f 102/4/1 94/4/1 101/4/1
f 103/4/1 99/4/1 95/4/1
f 104/4/1 99/4/1 103/4/1
f 105/1/1 103/1/1 102/1/1
f 106/1/1 103/1/1 105/1/1
f 109/1/1 108/1/1 107/1/1
f 110/1/1 108/1/1 109/1/1
f 111/1/2 112/1/2 113/1/2
f 113/1/2 112/1/2 114/1/2
f 115/1/2 116/1/2 117/1/2
f 117/1/2 116/1/2 118/1/2
f 119/1/2 120/1/2 121/1/2
f 121/1/2 120/1/2 122/1/2
f 123/1/2 124/1/2 125/1/2
f 125/1/2 124/1/2 126/1/2
f 127/1/2 128/1/2 129/1/2
f 129/1/2 128/1/2 130/1/2
f 131/1/2 132/1/2 133/1/2
f 133/1/2 132/1/2 134/1/2
f 135/2/2 136/2/2 137/2/2
f 137/2/2 136/2/2 138/2/2
f 139/2/2 140/2/2 141/2/2
f 141/2/2 140/2/2 142/2/2
f 143/1/2 144/1/2 145/1/2
f 145/1/2 144/1/2 146/1/2
f 147/1/2 148/1/2 149/1/2
f 149/1/2 148/1/2 150/1/2
f 151/1/2 152/1/2 153/1/2
f 153/1/2 152/1/2 154/1/2
f 155/1/2 156/1/2 157/1/2
f 157/1/2 156/1/2 158/1/2
f 159/1/2 160/1/2 161/1/2
f 161/1/2 160/1/2 162/1/2
f 163/1/2 164/1/2 165/1/2
f 165/1/2 164/1/2 166/1/2
f 167/1/2 168/1/2 169/1/2
f 169/1/2 168/1/2 170/1/2
f 171/1/2 172/1/2 173/1/2
f 173/1/2 172/1/2 174/1/2
f 175/1/2 176/1/2 177/1/2
f 177/1/2 176/1/2 178/1/2
f 179/1/2 180/1/2 181/1/2
f 181/1/2 180/1/2 182/1/2
f 183/4/2 184/4/2 187/4/2
f 187/4/2 184/4/2 188/4/2
f 185/4/2 186/4/2 189/4/2
f 189/4/2 186/4/2 190/4/2
f 188/4/2 184/4/2 191/4/2
f 191/4/2 184/4/2 192/4/2
f 185/4/2 189/4/2 193/4/2
f 193/4/2 189/4/2 194/4/2
f 192/1/2 193/1/2 195/1/2
f 195/1/2 193/1/2 196/1/2
f 197/4/2 198/4/2 199/4/2
f 199/4/2 198/4/2 200/4/2
f 201/4/2 202/4/2 203/4/2
f 203/4/2 202/4/2 204/4/2
f 207/4/3 206/4/3 205/4/3
f 208/4/3 206/4/3 207/4/3
f 211/4/3 210/4/3 209/4/3
f 212/4/3 210/4/3 211/4/3
f 216/1/3 214/1/3 213/1/3
f 218/1/3 216/1/3 215/1/3
f 220/1/3 218/1/3 217/1/3
f 221/1/3 216/1/3 218/1/3
f 221/1/3 218/1/3 220/1/3
f 222/1/3 214/1/3 216/1/3
f 222/1/3 216/1/3 221/1/3
f 226/1/3 221/1/3 220/1/3
f 226/1/3 220/1/3 219/1/3
f 227/1/3 221/1/3 226/1/3
f 228/1/3 221/1/3 227/1/3
f 229/4/3 224/4/3 223/4/3
f 232/1/3 226/1/3 225/1/3
f 232/1/3 227/1/3 226/1/3
f 233/1/3 227/1/3 232/1/3
f 234/1/3 227/1/3 233/1/3
f 235/4/3 230/4/3 229/4/3
f 235/4/3 229/4/3 223/4/3
f 236/4/3 230/4/3 235/4/3
f 237/1/3 233/1/3 232/1/3
f 237/1/3 232/1/3 231/1/3
f 238/1/3 233/1/3 237/1/3
f 239/1/3 214/1/3 222/1/3
f 241/1/3 238/1/3 237/1/3
f 241/1/3 237/1/3 236/1/3
f 241/1/3 239/1/3 238/1/3
f 242/1/3 214/1/3 239/1/3
f 242/1/3 239/1/3 241/1/3
f 243/4/3 241/4/3 240/4/3
f 244/4/3 241/4/3 243/4/3
f 245/4/3 243/4/3 240/4/3
f 246/4/3 243/4/3 245/4/3
f 252/1/3 248/1/3 247/1/3
f 253/1/3 248/1/3 252/1/3
f 257/1/3 250/1/3 249/1/3
f 258/1/3 250/1/3 257/1/3
f 261/1/3 252/1/3 251/1/3
f 262/1/3 252/1/3 261/1/3
f 263/1/3 254/1/3 253/1/3
f 264/1/3 254/1/3 263/1/3
f 266/1/3 256/1/3 255/1/3
f 267/1/3 256/1/3 266/1/3
f 268/1/3 256/1/3 267/1/3
f 269/1/3 259/1/3 258/1/3
f 270/1/3 259/1/3 269/1/3
f 271/1/3 261/1/3 260/1/3
f 272/1/3 265/1/3 264/1/3
f 274/1/3 268/1/3 267/1/3
f 274/1/3 270/1/3 269/1/3
f 274/1/3 269/1/3 268/1/3
f 275/1/3 270/1/3 274/1/3
f 276/2/3 271/2/3 270/2/3
f 276/1/3 270/1/3 275/1/3
f 277/1/3 261/1/3 271/1/3
f 277/2/3 271/2/3 276/2/3
f 278/2/3 273/2/3 272/2/3
f 278/1/3 272/1/3 264/1/3
f 279/2/3 273/2/3 278/2/3
f 281/1/3 276/1/3 275/1/3
f 282/1/3 276/1/3 281/1/3
f 283/1/3 261/1/3 277/1/3
f 284/1/3 261/1/3 283/1/3
f 287/1/3 278/1/3 264/1/3
f 288/1/3 278/1/3 287/1/3
f 289/1/3 281/1/3 280/1/3
f 290/1/3 281/1/3 289/1/3
f 291/1/3 285/1/3 284/1/3
f 292/1/3 285/1/3 291/1/3
f 293/1/3 287/1/3 286/1/3
f 294/1/3 287/1/3 293/1/3
f 295/1/3 293/1/3 292/1/3
f 296/1/3 293/1/3 295/1/3
f 297/1/4 298/1/4 302/1/4
f 302/1/4 298/1/4 303/1/4
f 299/1/4 300/1/4 307/1/4
f 307/1/4 300/1/4 308/1/4
f 301/1/4 302/1/4 311/1/4
f 311/1/4 302/1/4 312/1/4
f 303/1/4 304/1/4 313/1/4
f 313/1/4 304/1/4 314/1/4
f 305/1/4 306/1/4 316/1/4
f 316/1/4 306/1/4 317/1/4
f 317/1/4 306/1/4 318/1/4
f 308/1/4 309/1/4 319/1/4
f 319/1/4 309/1/4 320/1/4
f 310/1/4 311/1/4 321/1/4
f 314/1/4 315/1/4 322/1/4
f 317/1/4 318/1/4 324/1/4
f 319/1/4 320/1/4 324/1/4
f 318/1/4 319/1/4 324/1/4
f 324/1/4 320/1/4 325/1/4
f 320/2/4 321/2/4 326/2/4
f 325/1/4 320/1/4 326/1/4
f 321/1/4 311/1/4 327/1/4
f 326/2/4 321/2/4 327/2/4
f 322/2/4 323/2/4 328/2/4
f 314/1/4 322/1/4 328/1/4
f 328/2/4 323/2/4 329/2/4
f 325/1/4 326/1/4 331/1/4
f 331/1/4 326/1/4 332/1/4
f 327/1/4 311/1/4 333/1/4
f 333/1/4 311/1/4 334/1/4
f 314/1/4 328/1/4 337/1/4
f 337/1/4 328/1/4 338/1/4
f 330/1/4 331/1/4 339/1/4
f 339/1/4 331/1/4 340/1/4
f 334/1/4 335/1/4 341/1/4
f 341/1/4 335/1/4 342/1/4
f 336/1/4 337/1/4 343/1/4
f 343/1/4 337/1/4 344/1/4
f 342/1/4 343/1/4 345/1/4
f 345/1/4 343/1/4 346/1/4
f 347/1/4 348/1/4 350/1/4
f 349/1/4 350/1/4 352/1/4
f 351/1/4 352/1/4 354/1/4
f 352/1/4 350/1/4 355/1/4
f 354/1/4 352/1/4 355/1/4
f 350/1/4 348/1/4 356/1/4
f 355/1/4 350/1/4 356/1/4
f 354/1/4 355/1/4 360/1/4
f 353/1/4 354/1/4 360/1/4
f 360/1/4 355/1/4 361/1/4
f 361/1/4 355/1/4 362/1/4
f 357/4/4 358/4/4 363/4/4
f 359/1/4 360/1/4 366/1/4
f 360/1/4 361/1/4 366/1/4
f 366/1/4 361/1/4 367/1/4
f 367/1/4 361/1/4 368/1/4
f 363/4/4 364/4/4 369/4/4
f 357/4/4 363/4/4 369/4/4
f 369/4/4 364/4/4 370/4/4
f 366/1/4 367/1/4 371/1/4
f 365/1/4 366/1/4 371/1/4
f 371/1/4 367/1/4 372/1/4
f 356/1/4 348/1/4 373/1/4
f 371/1/4 372/1/4 375/1/4
f 370/1/4 371/1/4 375/1/4
f 372/1/4 373/1/4 375/1/4
f 373/1/4 348/1/4 376/1/4
f 375/1/4 373/1/4 376/1/4
f 374/4/4 375/4/4 377/4/4
f 377/4/4 375/4/4 378/4/4
f 374/4/4 377/4/4 379/4/4
f 379/4/4 377/4/4 380/4/4
f 381/4/4 382/4/4 383/4/4
f 383/4/4 382/4/4 384/4/4
f 385/4/4 386/4/4 387/4/4
f 387/4/4 386/4/4 388/4/4
f 392/4/5 390/4/5 389/4/5
f 393/4/5 390/4/5 392/4/5
f 395/4/5 392/4/5 391/4/5
f 396/3/5 393/3/5 392/3/5
f 396/4/5 392/4/5 395/4/5
f 397/4/5 394/4/5 393/4/5
f 397/3/5 393/3/5 396/3/5
f 398/4/5 394/4/5 397/4/5
f 399/4/5 397/4/5 396/4/5
f 400/4/5 397/4/5 399/4/5
f 403/1/5 402/1/5 401/1/5
f 404/1/5 402/1/5 403/1/5
f 407/1/5 406/1/5 405/1/5
f 408/1/5 406/1/5 407/1/5
f 413/1/5 410/1/5 409/1/5
f 414/1/5 410/1/5 413/1/5
f 415/1/5 412/1/5 411/1/5
f 416/1/5 412/1/5 415/1/5
f 421/1/5 418/1/5 417/1/5
f 422/1/5 418/1/5 421/1/5
f 423/1/5 420/1/5 419/1/5
f 424/1/5 420/1/5 423/1/5
f 429/1/5 426/1/5 425/1/5
f 430/1/5 426/1/5 429/1/5
f 431/1/5 428/1/5 427/1/5
f 432/1/5 428/1/5 431/1/5
f 437/1/5 434/1/5 433/1/5
f 438/1/5 434/1/5 437/1/5
f 439/1/5 436/1/5 435/1/5
f 440/1/5 436/1/5 439/1/5
f 445/1/5 442/1/5 441/1/5
f 446/1/5 442/1/5 445/1/5
f 447/1/5 444/1/5 443/1/5
f 448/1/5 444/1/5 447/1/5
f 451/1/5 450/1/5 449/1/5
f 452/1/5 450/1/5 451/1/5
f 459/1/5 456/1/5 455/1/5
f 460/1/5 456/1/5 459/1/5
f 461/1/5 458/1/5 457/1/5
f 462/1/5 458/1/5 461/1/5
f 463/1/5 454/1/5 453/1/5
f 464/1/5 454/1/5 463/1/5
f 469/1/5 468/1/5 467/1/5
f 470/1/5 468/1/5 469/1/5
f 471/1/5 466/1/5 465/1/5
f 472/1/5 466/1/5 471/1/5
f 475/1/5 474/1/5 473/1/5
f 476/1/5 474/1/5 475/1/5
f 479/1/5 478/1/5 477/1/5
f 480/1/5 478/1/5 479/1/5
f 485/1/5 482/1/5 481/1/5
f 486/1/5 482/1/5 485/1/5
f 488/1/5 482/1/5 486/1/5
f 489/1/5 488/1/5 487/1/5
f 490/1/5 482/1/5 488/1/5
f 490/1/5 488/1/5 489/1/5
f 491/1/5 484/1/5 483/1/5
f 492/1/5 484/1/5 491/1/5
f 493/4/6 494/4/6 495/4/6
f 495/4/6 494/4/6 496/4/6
f 497/4/6 498/4/6 501/4/6
f 501/4/6 498/4/6 502/4/6
f 499/4/6 500/4/6 503/4/6
f 503/4/6 500/4/6 504/4/6
f 505/4/6 506/4/6 507/4/6
f 507/4/6 506/4/6 508/4/6
f 509/4/6 510/4/6 512/4/6
f 512/4/6 510/4/6 513/4/6
f 511/4/6 512/4/6 515/4/6
f 515/4/6 512/4/6 516/4/6
f 513/4/6 514/4/6 517/4/6
f 517/4/6 514/4/6 518/4/6
f 516/4/6 517/4/6 519/4/6
f 519/4/6 517/4/6 520/4/6
f 521/1/6 522/1/6 523/1/6
f 523/1/6 522/1/6 524/1/6
f 525/1/6 526/1/6 529/1/6
f 529/1/6 526/1/6 530/1/6
f 527/1/6 528/1/6 531/1/6
f 531/1/6 528/1/6 532/1/6
f 533/1/6 534/1/6 537/1/6
f 537/1/6 534/1/6 538/1/6
f 535/1/6 536/1/6 539/1/6
f 539/1/6 536/1/6 540/1/6
f 541/1/6 542/1/6 543/1/6
f 543/1/6 542/1/6 544/1/6
f 545/1/6 546/1/6 549/1/6
f 549/1/6 546/1/6 550/1/6
f 547/1/6 548/1/6 551/1/6
f 551/1/6 548/1/6 552/1/6
f 553/1/6 554/1/6 557/1/6
f 557/1/6 554/1/6 558/1/6
f 555/1/6 556/1/6 559/1/6
f 559/1/6 556/1/6 560/1/6
f 563/1/6 564/1/6 567/1/6
f 567/1/6 564/1/6 568/1/6
f 565/1/6 566/1/6 569/1/6
f 569/1/6 566/1/6 570/1/6
f 561/1/6 562/1/6 571/1/6
f 571/1/6 562/1/6 572/1/6
f 575/1/6 576/1/6 579/1/6
f 579/1/6 576/1/6 580/1/6
f 577/1/6 578/1/6 581/1/6
f 581/1/6 578/1/6 582/1/6
f 573/1/6 574/1/6 583/1/6
f 583/1/6 574/1/6 584/1/6
f 585/1/6 586/1/6 587/1/6
f 587/1/6 586/1/6 588/1/6
f 589/1/6 590/1/6 591/1/6
f 591/1/6 590/1/6 592/1/6
