# MagicaVoxel @ Ephtracy

# group
g Viselitsa_3_mistake

# material
mtllib Viselitsa_3_mistake.mtl
usemtl palette

# normals
vn -1 0 0
vn 1 0 0
vn 0 0 1
vn 0 0 -1
vn 0 -1 0
vn 0 1 0

# texcoords
vt 0.970703 0.5
vt 0.974609 0.5
vt 0.978516 0.5
vt 0.990234 0.5

# verts
v -6 19 -1
v -6 19 -2
v -6 22 -1
v -6 22 -2
v -5 11 -1
v -5 11 -2
v -5 15 -1
v -5 15 -2
v -5 18 -1
v -5 18 -2
v -5 19 -1
v -5 19 -2
v -5 22 -1
v -5 22 -2
v -5 23 -1
v -5 23 -2
v -4 15 -1
v -4 15 -2
v -4 16 -1
v -4 16 -2
v -4 17 -1
v -4 17 -2
v -4 18 -1
v -4 18 -2
v -4 23 -1
v -4 23 -2
v -4 24 -1
v -4 24 -2
v -3 9 -1
v -3 9 -2
v -3 15 -1
v -3 15 -2
v -3 16 -1
v -3 16 -2
v -3 17 -1
v -3 17 -2
v -3 24 -1
v -3 24 -2
v -3 26 -0
v -3 26 -1
v -3 26 -2
v -3 26 -3
v -3 27 -0
v -3 27 -3
v -1 18 -1
v -1 18 -2
v -1 19 -1
v -1 19 -2
v -1 22 -1
v -1 22 -2
v -1 23 -1
v -1 23 -2
v 0 19 -1
v 0 19 -2
v 0 22 -1
v 0 22 -2
v 3 25 -0
v 3 25 -3
v 3 26 -0
v 3 26 -3
v 4 24 -0
v 4 24 -3
v 4 25 -0
v 4 25 -3
v 5 23 -0
v 5 23 -3
v 5 24 -0
v 5 24 -3
v 6 0 -0
v 6 0 -3
v 6 1 -0
v 6 1 -3
v 6 22 -0
v 6 22 -3
v 6 23 -0
v 6 23 -3
v 7 1 -0
v 7 1 -3
v 7 2 -0
v 7 2 -3
v 7 21 -0
v 7 21 -3
v 7 22 -0
v 7 22 -3
v 8 0 2
v 8 0 -0
v 8 0 -3
v 8 0 -5
v 8 1 2
v 8 1 1
v 8 1 -4
v 8 1 -5
v 8 2 1
v 8 2 -0
v 8 2 -3
v 8 2 -4
v 8 21 -0
v 8 21 -3
v 8 23 -0
v 8 23 -3
v 8 26 -0
v 8 26 -3
v -5 19 -1
v -5 19 -2
v -5 22 -1
v -5 22 -2
v -4 11 -1
v -4 11 -2
v -4 15 -1
v -4 15 -2
v -4 18 -1
v -4 18 -2
v -4 19 -1
v -4 19 -2
v -4 22 -1
v -4 22 -2
v -4 23 -1
v -4 23 -2
v -2 9 -1
v -2 9 -2
v -2 16 -1
v -2 16 -2
v -2 17 -1
v -2 17 -2
v -2 24 -1
v -2 24 -2
v -2 26 -1
v -2 26 -2
v -1 17 -1
v -1 17 -2
v -1 18 -1
v -1 18 -2
v -1 23 -1
v -1 23 -2
v -1 24 -1
v -1 24 -2
v 0 18 -1
v 0 18 -2
v 0 19 -1
v 0 19 -2
v 0 22 -1
v 0 22 -2
v 0 23 -1
v 0 23 -2
v 1 19 -1
v 1 19 -2
v 1 22 -1
v 1 22 -2
v 5 25 -0
v 5 25 -3
v 5 26 -0
v 5 26 -3
v 6 24 -0
v 6 24 -3
v 6 25 -0
v 6 25 -3
v 7 23 -0
v 7 23 -3
v 7 24 -0
v 7 24 -3
v 11 0 2
v 11 0 -0
v 11 0 -3
v 11 0 -5
v 11 1 2
v 11 1 1
v 11 1 -4
v 11 1 -5
v 11 2 1
v 11 2 -0
v 11 2 -3
v 11 2 -4
v 11 27 -0
v 11 27 -3
v 12 1 -0
v 12 1 -3
v 12 2 -0
v 12 2 -3
v 13 0 -0
v 13 0 -3
v 13 1 -0
v 13 1 -3
v 8 0 2
v 8 1 2
v 11 0 2
v 11 1 2
v 8 1 1
v 8 2 1
v 11 1 1
v 11 2 1
v -3 26 -0
v -3 27 -0
v 3 25 -0
v 3 26 -0
v 4 24 -0
v 4 25 -0
v 5 23 -0
v 5 24 -0
v 5 25 -0
v 5 26 -0
v 6 0 -0
v 6 1 -0
v 6 22 -0
v 6 23 -0
v 6 24 -0
v 6 25 -0
v 7 1 -0
v 7 2 -0
v 7 21 -0
v 7 22 -0
v 7 23 -0
v 7 24 -0
v 8 0 -0
v 8 2 -0
v 8 21 -0
v 8 23 -0
v 8 26 -0
v 11 0 -0
v 11 2 -0
v 11 27 -0
v 12 1 -0
v 12 2 -0
v 13 0 -0
v 13 1 -0
v -6 19 -1
v -6 22 -1
v -5 11 -1
v -5 15 -1
v -5 18 -1
v -5 19 -1
v -5 22 -1
v -5 23 -1
v -4 11 -1
v -4 15 -1
v -4 16 -1
v -4 17 -1
v -4 18 -1
v -4 19 -1
v -4 22 -1
v -4 23 -1
v -4 24 -1
v -3 9 -1
v -3 15 -1
v -3 16 -1
v -3 17 -1
v -3 24 -1
v -3 26 -1
v -2 9 -1
v -2 16 -1
v -2 17 -1
v -2 24 -1
v -2 26 -1
v -1 17 -1
v -1 18 -1
v -1 19 -1
v -1 22 -1
v -1 23 -1
v -1 24 -1
v 0 18 -1
v 0 19 -1
v 0 22 -1
v 0 23 -1
v 1 19 -1
v 1 22 -1
v -6 19 -2
v -6 22 -2
v -5 11 -2
v -5 15 -2
v -5 18 -2
v -5 19 -2
v -5 22 -2
v -5 23 -2
v -4 11 -2
v -4 15 -2
v -4 16 -2
v -4 17 -2
v -4 18 -2
v -4 19 -2
v -4 22 -2
v -4 23 -2
v -4 24 -2
v -3 9 -2
v -3 15 -2
v -3 16 -2
v -3 17 -2
v -3 24 -2
v -3 26 -2
v -2 9 -2
v -2 16 -2
v -2 17 -2
v -2 24 -2
v -2 26 -2
v -1 17 -2
v -1 18 -2
v -1 19 -2
v -1 22 -2
v -1 23 -2
v -1 24 -2
v 0 18 -2
v 0 19 -2
v 0 22 -2
v 0 23 -2
v 1 19 -2
v 1 22 -2
v -3 26 -3
v -3 27 -3
v 3 25 -3
v 3 26 -3
v 4 24 -3
v 4 25 -3
v 5 23 -3
v 5 24 -3
v 5 25 -3
v 5 26 -3
v 6 0 -3
v 6 1 -3
v 6 22 -3
v 6 23 -3
v 6 24 -3
v 6 25 -3
v 7 1 -3
v 7 2 -3
v 7 21 -3
v 7 22 -3
v 7 23 -3
v 7 24 -3
v 8 0 -3
v 8 2 -3
v 8 21 -3
v 8 23 -3
v 8 26 -3
v 11 0 -3
v 11 2 -3
v 11 27 -3
v 12 1 -3
v 12 2 -3
v 13 0 -3
v 13 1 -3
v 8 1 -4
v 8 2 -4
v 11 1 -4
v 11 2 -4
v 8 0 -5
v 8 1 -5
v 11 0 -5
v 11 1 -5
v 8 0 2
v 11 0 2
v 6 0 -0
v 8 0 -0
v 11 0 -0
v 13 0 -0
v 6 0 -3
v 8 0 -3
v 11 0 -3
v 13 0 -3
v 8 0 -5
v 11 0 -5
v -3 9 -1
v -2 9 -1
v -3 9 -2
v -2 9 -2
v -5 11 -1
v -4 11 -1
v -5 11 -2
v -4 11 -2
v -4 15 -1
v -3 15 -1
v -4 15 -2
v -3 15 -2
v -4 17 -1
v -3 17 -1
v -2 17 -1
v -1 17 -1
v -4 17 -2
v -3 17 -2
v -2 17 -2
v -1 17 -2
v -5 18 -1
v -4 18 -1
v -1 18 -1
v 0 18 -1
v -5 18 -2
v -4 18 -2
v -1 18 -2
v 0 18 -2
v -6 19 -1
v -5 19 -1
v 0 19 -1
v 1 19 -1
v -6 19 -2
v -5 19 -2
v 0 19 -2
v 1 19 -2
v 7 21 -0
v 8 21 -0
v 7 21 -3
v 8 21 -3
v 6 22 -0
v 7 22 -0
v -5 22 -1
v -4 22 -1
v -1 22 -1
v 0 22 -1
v -5 22 -2
v -4 22 -2
v -1 22 -2
v 0 22 -2
v 6 22 -3
v 7 22 -3
v 5 23 -0
v 6 23 -0
v -4 23 -1
v -1 23 -1
v -4 23 -2
v -1 23 -2
v 5 23 -3
v 6 23 -3
v 4 24 -0
v 5 24 -0
v 4 24 -3
v 5 24 -3
v 3 25 -0
v 4 25 -0
v 3 25 -3
v 4 25 -3
v -3 26 -0
v 3 26 -0
v 5 26 -0
v 8 26 -0
v -3 26 -1
v -2 26 -1
v -3 26 -2
v -2 26 -2
v -3 26 -3
v 3 26 -3
v 5 26 -3
v 8 26 -3
v 8 1 2
v 11 1 2
v 8 1 1
v 11 1 1
v 6 1 -0
v 7 1 -0
v 12 1 -0
v 13 1 -0
v 6 1 -3
v 7 1 -3
v 12 1 -3
v 13 1 -3
v 8 1 -4
v 11 1 -4
v 8 1 -5
v 11 1 -5
v 8 2 1
v 11 2 1
v 7 2 -0
v 8 2 -0
v 11 2 -0
v 12 2 -0
v 7 2 -3
v 8 2 -3
v 11 2 -3
v 12 2 -3
v 8 2 -4
v 11 2 -4
v -5 15 -1
v -4 15 -1
v -5 15 -2
v -4 15 -2
v -4 16 -1
v -3 16 -1
v -4 16 -2
v -3 16 -2
v -4 18 -1
v -1 18 -1
v -4 18 -2
v -1 18 -2
v -5 19 -1
v -4 19 -1
v -1 19 -1
v 0 19 -1
v -5 19 -2
v -4 19 -2
v -1 19 -2
v 0 19 -2
v -6 22 -1
v -5 22 -1
v 0 22 -1
v 1 22 -1
v -6 22 -2
v -5 22 -2
v 0 22 -2
v 1 22 -2
v 7 23 -0
v 8 23 -0
v -5 23 -1
v -4 23 -1
v -1 23 -1
v 0 23 -1
v -5 23 -2
v -4 23 -2
v -1 23 -2
v 0 23 -2
v 7 23 -3
v 8 23 -3
v 6 24 -0
v 7 24 -0
v -4 24 -1
v -3 24 -1
v -2 24 -1
v -1 24 -1
v -4 24 -2
v -3 24 -2
v -2 24 -2
v -1 24 -2
v 6 24 -3
v 7 24 -3
v 5 25 -0
v 6 25 -0
v 5 25 -3
v 6 25 -3
v -3 27 -0
v 11 27 -0
v -3 27 -3
v 11 27 -3

# faces
f 3/1/1 2/1/1 1/1/1
f 4/1/1 2/1/1 3/1/1
f 7/1/1 6/1/1 5/1/1
f 8/1/1 6/1/1 7/1/1
f 11/1/1 10/1/1 9/1/1
f 12/1/1 10/1/1 11/1/1
f 15/1/1 14/1/1 13/1/1
f 16/1/1 14/1/1 15/1/1
f 19/1/1 18/1/1 17/1/1
f 20/1/1 18/1/1 19/1/1
f 23/1/1 22/1/1 21/1/1
f 24/1/1 22/1/1 23/1/1
f 27/1/1 26/1/1 25/1/1
f 28/1/1 26/1/1 27/1/1
f 31/1/1 30/1/1 29/1/1
f 32/1/1 30/1/1 31/1/1
f 35/2/1 34/2/1 33/2/1
f 36/2/1 34/2/1 35/2/1
f 40/2/1 38/2/1 37/2/1
f 41/2/1 38/2/1 40/2/1
f 43/1/1 41/1/1 40/1/1
f 43/1/1 42/1/1 41/1/1
f 43/1/1 40/1/1 39/1/1
f 44/1/1 42/1/1 43/1/1
f 47/1/1 46/1/1 45/1/1
f 48/1/1 46/1/1 47/1/1
f 51/1/1 50/1/1 49/1/1
f 52/1/1 50/1/1 51/1/1
f 55/1/1 54/1/1 53/1/1
f 56/1/1 54/1/1 55/1/1
f 59/1/1 58/1/1 57/1/1
f 60/1/1 58/1/1 59/1/1
f 63/1/1 62/1/1 61/1/1
f 64/1/1 62/1/1 63/1/1
f 67/1/1 66/1/1 65/1/1
f 68/1/1 66/1/1 67/1/1
f 71/4/1 70/4/1 69/4/1
f 72/4/1 70/4/1 71/4/1
f 75/1/1 74/1/1 73/1/1
f 76/1/1 74/1/1 75/1/1
f 79/4/1 78/4/1 77/4/1
f 80/4/1 78/4/1 79/4/1
f 83/1/1 82/1/1 81/1/1
f 84/1/1 82/1/1 83/1/1
f 89/4/1 86/4/1 85/4/1
f 90/4/1 86/4/1 89/4/1
f 91/4/1 88/4/1 87/4/1
f 92/4/1 88/4/1 91/4/1
f 93/4/1 86/4/1 90/4/1
f 94/4/1 86/4/1 93/4/1
f 95/4/1 91/4/1 87/4/1
f 96/4/1 91/4/1 95/4/1
f 97/1/1 95/1/1 94/1/1
f 98/1/1 95/1/1 97/1/1
f 101/1/1 100/1/1 99/1/1
f 102/1/1 100/1/1 101/1/1
f 103/1/2 104/1/2 105/1/2
f 105/1/2 104/1/2 106/1/2
f 107/1/2 108/1/2 109/1/2
f 109/1/2 108/1/2 110/1/2
f 111/1/2 112/1/2 113/1/2
f 113/1/2 112/1/2 114/1/2
f 115/1/2 116/1/2 117/1/2
f 117/1/2 116/1/2 118/1/2
f 119/1/2 120/1/2 121/1/2
f 121/1/2 120/1/2 122/1/2
f 121/2/2 122/2/2 123/2/2
f 123/2/2 122/2/2 124/2/2
f 125/2/2 126/2/2 127/2/2
f 127/2/2 126/2/2 128/2/2
f 129/1/2 130/1/2 131/1/2
f 131/1/2 130/1/2 132/1/2
f 133/1/2 134/1/2 135/1/2
f 135/1/2 134/1/2 136/1/2
f 137/1/2 138/1/2 139/1/2
f 139/1/2 138/1/2 140/1/2
f 141/1/2 142/1/2 143/1/2
f 143/1/2 142/1/2 144/1/2
f 145/1/2 146/1/2 147/1/2
f 147/1/2 146/1/2 148/1/2
f 149/1/2 150/1/2 151/1/2
f 151/1/2 150/1/2 152/1/2
f 153/1/2 154/1/2 155/1/2
f 155/1/2 154/1/2 156/1/2
f 157/1/2 158/1/2 159/1/2
f 159/1/2 158/1/2 160/1/2
f 161/4/2 162/4/2 165/4/2
f 165/4/2 162/4/2 166/4/2
f 163/4/2 164/4/2 167/4/2
f 167/4/2 164/4/2 168/4/2
f 166/4/2 162/4/2 169/4/2
f 169/4/2 162/4/2 170/4/2
f 163/4/2 167/4/2 171/4/2
f 171/4/2 167/4/2 172/4/2
f 170/1/2 171/1/2 173/1/2
f 173/1/2 171/1/2 174/1/2
f 175/4/2 176/4/2 177/4/2
f 177/4/2 176/4/2 178/4/2
f 179/4/2 180/4/2 181/4/2
f 181/4/2 180/4/2 182/4/2
f 185/4/3 184/4/3 183/4/3
f 186/4/3 184/4/3 185/4/3
f 189/4/3 188/4/3 187/4/3
f 190/4/3 188/4/3 189/4/3
f 194/1/3 192/1/3 191/1/3
f 196/1/3 194/1/3 193/1/3
f 198/1/3 196/1/3 195/1/3
f 199/1/3 194/1/3 196/1/3
f 199/1/3 196/1/3 198/1/3
f 200/1/3 192/1/3 194/1/3
f 200/1/3 194/1/3 199/1/3
f 204/1/3 199/1/3 198/1/3
f 204/1/3 198/1/3 197/1/3
f 205/1/3 199/1/3 204/1/3
f 206/1/3 199/1/3 205/1/3
f 207/4/3 202/4/3 201/4/3
f 210/1/3 204/1/3 203/1/3
f 210/1/3 205/1/3 204/1/3
f 211/1/3 205/1/3 210/1/3
f 212/1/3 205/1/3 211/1/3
f 213/4/3 208/4/3 207/4/3
f 213/4/3 207/4/3 201/4/3
f 214/4/3 208/4/3 213/4/3
f 215/1/3 211/1/3 210/1/3
f 215/1/3 210/1/3 209/1/3
f 216/1/3 211/1/3 215/1/3
f 217/1/3 192/1/3 200/1/3
f 219/1/3 216/1/3 215/1/3
f 219/1/3 215/1/3 214/1/3
f 219/1/3 217/1/3 216/1/3
f 220/1/3 192/1/3 217/1/3
f 220/1/3 217/1/3 219/1/3
f 221/4/3 219/4/3 218/4/3
f 222/4/3 219/4/3 221/4/3
f 223/4/3 221/4/3 218/4/3
f 224/4/3 221/4/3 223/4/3
f 230/1/3 226/1/3 225/1/3
f 231/1/3 226/1/3 230/1/3
f 233/1/3 228/1/3 227/1/3
f 234/1/3 228/1/3 233/1/3
f 237/1/3 230/1/3 229/1/3
f 238/1/3 230/1/3 237/1/3
f 239/1/3 232/1/3 231/1/3
f 240/1/3 232/1/3 239/1/3
f 243/1/3 235/1/3 234/1/3
f 244/1/3 235/1/3 243/1/3
f 245/1/3 237/1/3 236/1/3
f 246/1/3 241/1/3 240/1/3
f 248/1/3 244/1/3 243/1/3
f 248/1/3 243/1/3 242/1/3
f 249/2/3 245/2/3 244/2/3
f 249/1/3 244/1/3 248/1/3
f 250/1/3 237/1/3 245/1/3
f 250/2/3 245/2/3 249/2/3
f 251/2/3 247/2/3 246/2/3
f 251/1/3 246/1/3 240/1/3
f 252/2/3 247/2/3 251/2/3
f 253/1/3 237/1/3 250/1/3
f 254/1/3 237/1/3 253/1/3
f 257/1/3 251/1/3 240/1/3
f 258/1/3 251/1/3 257/1/3
f 259/1/3 255/1/3 254/1/3
f 260/1/3 255/1/3 259/1/3
f 261/1/3 257/1/3 256/1/3
f 262/1/3 257/1/3 261/1/3
f 263/1/3 261/1/3 260/1/3
f 264/1/3 261/1/3 263/1/3
f 265/1/4 266/1/4 270/1/4
f 270/1/4 266/1/4 271/1/4
f 267/1/4 268/1/4 273/1/4
f 273/1/4 268/1/4 274/1/4
f 269/1/4 270/1/4 277/1/4
f 277/1/4 270/1/4 278/1/4
f 271/1/4 272/1/4 279/1/4
f 279/1/4 272/1/4 280/1/4
f 274/1/4 275/1/4 283/1/4
f 283/1/4 275/1/4 284/1/4
f 276/1/4 277/1/4 285/1/4
f 280/1/4 281/1/4 286/1/4
f 283/1/4 284/1/4 288/1/4
f 282/1/4 283/1/4 288/1/4
f 284/2/4 285/2/4 289/2/4
f 288/1/4 284/1/4 289/1/4
f 285/1/4 277/1/4 290/1/4
f 289/2/4 285/2/4 290/2/4
f 286/2/4 287/2/4 291/2/4
f 280/1/4 286/1/4 291/1/4
f 291/2/4 287/2/4 292/2/4
f 290/1/4 277/1/4 293/1/4
f 293/1/4 277/1/4 294/1/4
f 280/1/4 291/1/4 297/1/4
f 297/1/4 291/1/4 298/1/4
f 294/1/4 295/1/4 299/1/4
f 299/1/4 295/1/4 300/1/4
f 296/1/4 297/1/4 301/1/4
f 301/1/4 297/1/4 302/1/4
f 300/1/4 301/1/4 303/1/4
f 303/1/4 301/1/4 304/1/4
f 305/1/4 306/1/4 308/1/4
f 307/1/4 308/1/4 310/1/4
f 309/1/4 310/1/4 312/1/4
f 310/1/4 308/1/4 313/1/4
f 312/1/4 310/1/4 313/1/4
f 308/1/4 306/1/4 314/1/4
f 313/1/4 308/1/4 314/1/4
f 312/1/4 313/1/4 318/1/4
f 311/1/4 312/1/4 318/1/4
f 318/1/4 313/1/4 319/1/4
f 319/1/4 313/1/4 320/1/4
f 315/4/4 316/4/4 321/4/4
f 317/1/4 318/1/4 324/1/4
f 318/1/4 319/1/4 324/1/4
f 324/1/4 319/1/4 325/1/4
f 325/1/4 319/1/4 326/1/4
f 321/4/4 322/4/4 327/4/4
f 315/4/4 321/4/4 327/4/4
f 327/4/4 322/4/4 328/4/4
f 324/1/4 325/1/4 329/1/4
f 323/1/4 324/1/4 329/1/4
f 329/1/4 325/1/4 330/1/4
f 314/1/4 306/1/4 331/1/4
f 329/1/4 330/1/4 333/1/4
f 328/1/4 329/1/4 333/1/4
f 330/1/4 331/1/4 333/1/4
f 331/1/4 306/1/4 334/1/4
f 333/1/4 331/1/4 334/1/4
f 332/4/4 333/4/4 335/4/4
f 335/4/4 333/4/4 336/4/4
f 332/4/4 335/4/4 337/4/4
f 337/4/4 335/4/4 338/4/4
f 339/4/4 340/4/4 341/4/4
f 341/4/4 340/4/4 342/4/4
f 343/4/4 344/4/4 345/4/4
f 345/4/4 344/4/4 346/4/4
f 350/4/5 348/4/5 347/4/5
f 351/4/5 348/4/5 350/4/5
f 353/4/5 350/4/5 349/4/5
f 354/3/5 351/3/5 350/3/5
f 354/4/5 350/4/5 353/4/5
f 355/4/5 352/4/5 351/4/5
f 355/3/5 351/3/5 354/3/5
f 356/4/5 352/4/5 355/4/5
f 357/4/5 355/4/5 354/4/5
f 358/4/5 355/4/5 357/4/5
f 361/1/5 360/1/5 359/1/5
f 362/1/5 360/1/5 361/1/5
f 365/1/5 364/1/5 363/1/5
f 366/1/5 364/1/5 365/1/5
f 369/1/5 368/1/5 367/1/5
f 370/1/5 368/1/5 369/1/5
f 375/1/5 372/1/5 371/1/5
f 376/1/5 372/1/5 375/1/5
f 377/1/5 374/1/5 373/1/5
f 378/1/5 374/1/5 377/1/5
f 383/1/5 380/1/5 379/1/5
f 384/1/5 380/1/5 383/1/5
f 385/1/5 382/1/5 381/1/5
f 386/1/5 382/1/5 385/1/5
f 391/1/5 388/1/5 387/1/5
f 392/1/5 388/1/5 391/1/5
f 393/1/5 390/1/5 389/1/5
f 394/1/5 390/1/5 393/1/5
f 397/1/5 396/1/5 395/1/5
f 398/1/5 396/1/5 397/1/5
f 405/1/5 402/1/5 401/1/5
f 406/1/5 402/1/5 405/1/5
f 407/1/5 404/1/5 403/1/5
f 408/1/5 404/1/5 407/1/5
f 409/1/5 400/1/5 399/1/5
f 410/1/5 400/1/5 409/1/5
f 415/1/5 414/1/5 413/1/5
f 416/1/5 414/1/5 415/1/5
f 417/1/5 412/1/5 411/1/5
f 418/1/5 412/1/5 417/1/5
f 421/1/5 420/1/5 419/1/5
f 422/1/5 420/1/5 421/1/5
f 425/1/5 424/1/5 423/1/5
f 426/1/5 424/1/5 425/1/5
f 431/1/5 428/1/5 427/1/5
f 432/1/5 428/1/5 431/1/5
f 434/1/5 428/1/5 432/1/5
f 435/1/5 434/1/5 433/1/5
f 436/1/5 428/1/5 434/1/5
f 436/1/5 434/1/5 435/1/5
f 437/1/5 430/1/5 429/1/5
f 438/1/5 430/1/5 437/1/5
f 439/4/6 440/4/6 441/4/6
f 441/4/6 440/4/6 442/4/6
f 443/4/6 444/4/6 447/4/6
f 447/4/6 444/4/6 448/4/6
f 445/4/6 446/4/6 449/4/6
f 449/4/6 446/4/6 450/4/6
f 451/4/6 452/4/6 453/4/6
f 453/4/6 452/4/6 454/4/6
f 455/4/6 456/4/6 458/4/6
f 458/4/6 456/4/6 459/4/6
f 457/4/6 458/4/6 461/4/6
f 461/4/6 458/4/6 462/4/6
f 459/4/6 460/4/6 463/4/6
f 463/4/6 460/4/6 464/4/6
f 462/4/6 463/4/6 465/4/6
f 465/4/6 463/4/6 466/4/6
f 467/1/6 468/1/6 469/1/6
f 469/1/6 468/1/6 470/1/6
f 471/1/6 472/1/6 473/1/6
f 473/1/6 472/1/6 474/1/6
f 475/1/6 476/1/6 477/1/6
f 477/1/6 476/1/6 478/1/6
f 479/1/6 480/1/6 483/1/6
f 483/1/6 480/1/6 484/1/6
f 481/1/6 482/1/6 485/1/6
f 485/1/6 482/1/6 486/1/6
f 487/1/6 488/1/6 491/1/6
f 491/1/6 488/1/6 492/1/6
f 489/1/6 490/1/6 493/1/6
f 493/1/6 490/1/6 494/1/6
f 497/1/6 498/1/6 501/1/6
f 501/1/6 498/1/6 502/1/6
f 499/1/6 500/1/6 503/1/6
f 503/1/6 500/1/6 504/1/6
f 495/1/6 496/1/6 505/1/6
f 505/1/6 496/1/6 506/1/6
f 509/1/6 510/1/6 513/1/6
f 513/1/6 510/1/6 514/1/6
f 511/1/6 512/1/6 515/1/6
f 515/1/6 512/1/6 516/1/6
f 507/1/6 508/1/6 517/1/6
f 517/1/6 508/1/6 518/1/6
f 519/1/6 520/1/6 521/1/6
f 521/1/6 520/1/6 522/1/6
f 523/1/6 524/1/6 525/1/6
f 525/1/6 524/1/6 526/1/6
