# MagicaVoxel @ Ephtracy

# group
g Viselitsa_2_mistake

# material
mtllib Viselitsa_2_mistake.mtl
usemtl palette

# normals
vn -1 0 0
vn 1 0 0
vn 0 0 1
vn 0 0 -1
vn 0 -1 0
vn 0 1 0

# texcoords
vt 0.970703 0.5
vt 0.974609 0.5
vt 0.978516 0.5
vt 0.990234 0.5

# verts
v -6 19 -1
v -6 19 -2
v -6 22 -1
v -6 22 -2
v -5 18 -1
v -5 18 -2
v -5 19 -1
v -5 19 -2
v -5 22 -1
v -5 22 -2
v -5 23 -1
v -5 23 -2
v -4 17 -1
v -4 17 -2
v -4 18 -1
v -4 18 -2
v -4 23 -1
v -4 23 -2
v -4 24 -1
v -4 24 -2
v -3 9 -1
v -3 9 -2
v -3 16 -1
v -3 16 -2
v -3 17 -1
v -3 17 -2
v -3 24 -1
v -3 24 -2
v -3 26 -0
v -3 26 -1
v -3 26 -2
v -3 26 -3
v -3 27 -0
v -3 27 -3
v -1 18 -1
v -1 18 -2
v -1 19 -1
v -1 19 -2
v -1 22 -1
v -1 22 -2
v -1 23 -1
v -1 23 -2
v 0 19 -1
v 0 19 -2
v 0 22 -1
v 0 22 -2
v 3 25 -0
v 3 25 -3
v 3 26 -0
v 3 26 -3
v 4 24 -0
v 4 24 -3
v 4 25 -0
v 4 25 -3
v 5 23 -0
v 5 23 -3
v 5 24 -0
v 5 24 -3
v 6 0 -0
v 6 0 -3
v 6 1 -0
v 6 1 -3
v 6 22 -0
v 6 22 -3
v 6 23 -0
v 6 23 -3
v 7 1 -0
v 7 1 -3
v 7 2 -0
v 7 2 -3
v 7 21 -0
v 7 21 -3
v 7 22 -0
v 7 22 -3
v 8 0 2
v 8 0 -0
v 8 0 -3
v 8 0 -5
v 8 1 2
v 8 1 1
v 8 1 -4
v 8 1 -5
v 8 2 1
v 8 2 -0
v 8 2 -3
v 8 2 -4
v 8 21 -0
v 8 21 -3
v 8 23 -0
v 8 23 -3
v 8 26 -0
v 8 26 -3
v -5 19 -1
v -5 19 -2
v -5 22 -1
v -5 22 -2
v -4 18 -1
v -4 18 -2
v -4 19 -1
v -4 19 -2
v -4 22 -1
v -4 22 -2
v -4 23 -1
v -4 23 -2
v -2 9 -1
v -2 9 -2
v -2 16 -1
v -2 16 -2
v -2 17 -1
v -2 17 -2
v -2 24 -1
v -2 24 -2
v -2 26 -1
v -2 26 -2
v -1 17 -1
v -1 17 -2
v -1 18 -1
v -1 18 -2
v -1 23 -1
v -1 23 -2
v -1 24 -1
v -1 24 -2
v 0 18 -1
v 0 18 -2
v 0 19 -1
v 0 19 -2
v 0 22 -1
v 0 22 -2
v 0 23 -1
v 0 23 -2
v 1 19 -1
v 1 19 -2
v 1 22 -1
v 1 22 -2
v 5 25 -0
v 5 25 -3
v 5 26 -0
v 5 26 -3
v 6 24 -0
v 6 24 -3
v 6 25 -0
v 6 25 -3
v 7 23 -0
v 7 23 -3
v 7 24 -0
v 7 24 -3
v 11 0 2
v 11 0 -0
v 11 0 -3
v 11 0 -5
v 11 1 2
v 11 1 1
v 11 1 -4
v 11 1 -5
v 11 2 1
v 11 2 -0
v 11 2 -3
v 11 2 -4
v 11 27 -0
v 11 27 -3
v 12 1 -0
v 12 1 -3
v 12 2 -0
v 12 2 -3
v 13 0 -0
v 13 0 -3
v 13 1 -0
v 13 1 -3
v 8 0 2
v 8 1 2
v 11 0 2
v 11 1 2
v 8 1 1
v 8 2 1
v 11 1 1
v 11 2 1
v -3 26 -0
v -3 27 -0
v 3 25 -0
v 3 26 -0
v 4 24 -0
v 4 25 -0
v 5 23 -0
v 5 24 -0
v 5 25 -0
v 5 26 -0
v 6 0 -0
v 6 1 -0
v 6 22 -0
v 6 23 -0
v 6 24 -0
v 6 25 -0
v 7 1 -0
v 7 2 -0
v 7 21 -0
v 7 22 -0
v 7 23 -0
v 7 24 -0
v 8 0 -0
v 8 2 -0
v 8 21 -0
v 8 23 -0
v 8 26 -0
v 11 0 -0
v 11 2 -0
v 11 27 -0
v 12 1 -0
v 12 2 -0
v 13 0 -0
v 13 1 -0
v -6 19 -1
v -6 22 -1
v -5 18 -1
v -5 19 -1
v -5 22 -1
v -5 23 -1
v -4 17 -1
v -4 18 -1
v -4 19 -1
v -4 22 -1
v -4 23 -1
v -4 24 -1
v -3 9 -1
v -3 16 -1
v -3 17 -1
v -3 24 -1
v -3 26 -1
v -2 9 -1
v -2 16 -1
v -2 17 -1
v -2 24 -1
v -2 26 -1
v -1 17 -1
v -1 18 -1
v -1 19 -1
v -1 22 -1
v -1 23 -1
v -1 24 -1
v 0 18 -1
v 0 19 -1
v 0 22 -1
v 0 23 -1
v 1 19 -1
v 1 22 -1
v -6 19 -2
v -6 22 -2
v -5 18 -2
v -5 19 -2
v -5 22 -2
v -5 23 -2
v -4 17 -2
v -4 18 -2
v -4 19 -2
v -4 22 -2
v -4 23 -2
v -4 24 -2
v -3 9 -2
v -3 16 -2
v -3 17 -2
v -3 24 -2
v -3 26 -2
v -2 9 -2
v -2 16 -2
v -2 17 -2
v -2 24 -2
v -2 26 -2
v -1 17 -2
v -1 18 -2
v -1 19 -2
v -1 22 -2
v -1 23 -2
v -1 24 -2
v 0 18 -2
v 0 19 -2
v 0 22 -2
v 0 23 -2
v 1 19 -2
v 1 22 -2
v -3 26 -3
v -3 27 -3
v 3 25 -3
v 3 26 -3
v 4 24 -3
v 4 25 -3
v 5 23 -3
v 5 24 -3
v 5 25 -3
v 5 26 -3
v 6 0 -3
v 6 1 -3
v 6 22 -3
v 6 23 -3
v 6 24 -3
v 6 25 -3
v 7 1 -3
v 7 2 -3
v 7 21 -3
v 7 22 -3
v 7 23 -3
v 7 24 -3
v 8 0 -3
v 8 2 -3
v 8 21 -3
v 8 23 -3
v 8 26 -3
v 11 0 -3
v 11 2 -3
v 11 27 -3
v 12 1 -3
v 12 2 -3
v 13 0 -3
v 13 1 -3
v 8 1 -4
v 8 2 -4
v 11 1 -4
v 11 2 -4
v 8 0 -5
v 8 1 -5
v 11 0 -5
v 11 1 -5
v 8 0 2
v 11 0 2
v 6 0 -0
v 8 0 -0
v 11 0 -0
v 13 0 -0
v 6 0 -3
v 8 0 -3
v 11 0 -3
v 13 0 -3
v 8 0 -5
v 11 0 -5
v -3 9 -1
v -2 9 -1
v -3 9 -2
v -2 9 -2
v -4 17 -1
v -3 17 -1
v -2 17 -1
v -1 17 -1
v -4 17 -2
v -3 17 -2
v -2 17 -2
v -1 17 -2
v -5 18 -1
v -4 18 -1
v -1 18 -1
v 0 18 -1
v -5 18 -2
v -4 18 -2
v -1 18 -2
v 0 18 -2
v -6 19 -1
v -5 19 -1
v 0 19 -1
v 1 19 -1
v -6 19 -2
v -5 19 -2
v 0 19 -2
v 1 19 -2
v 7 21 -0
v 8 21 -0
v 7 21 -3
v 8 21 -3
v 6 22 -0
v 7 22 -0
v -5 22 -1
v -4 22 -1
v -1 22 -1
v 0 22 -1
v -5 22 -2
v -4 22 -2
v -1 22 -2
v 0 22 -2
v 6 22 -3
v 7 22 -3
v 5 23 -0
v 6 23 -0
v -4 23 -1
v -1 23 -1
v -4 23 -2
v -1 23 -2
v 5 23 -3
v 6 23 -3
v 4 24 -0
v 5 24 -0
v 4 24 -3
v 5 24 -3
v 3 25 -0
v 4 25 -0
v 3 25 -3
v 4 25 -3
v -3 26 -0
v 3 26 -0
v 5 26 -0
v 8 26 -0
v -3 26 -1
v -2 26 -1
v -3 26 -2
v -2 26 -2
v -3 26 -3
v 3 26 -3
v 5 26 -3
v 8 26 -3
v 8 1 2
v 11 1 2
v 8 1 1
v 11 1 1
v 6 1 -0
v 7 1 -0
v 12 1 -0
v 13 1 -0
v 6 1 -3
v 7 1 -3
v 12 1 -3
v 13 1 -3
v 8 1 -4
v 11 1 -4
v 8 1 -5
v 11 1 -5
v 8 2 1
v 11 2 1
v 7 2 -0
v 8 2 -0
v 11 2 -0
v 12 2 -0
v 7 2 -3
v 8 2 -3
v 11 2 -3
v 12 2 -3
v 8 2 -4
v 11 2 -4
v -4 18 -1
v -1 18 -1
v -4 18 -2
v -1 18 -2
v -5 19 -1
v -4 19 -1
v -1 19 -1
v 0 19 -1
v -5 19 -2
v -4 19 -2
v -1 19 -2
v 0 19 -2
v -6 22 -1
v -5 22 -1
v 0 22 -1
v 1 22 -1
v -6 22 -2
v -5 22 -2
v 0 22 -2
v 1 22 -2
v 7 23 -0
v 8 23 -0
v -5 23 -1
v -4 23 -1
v -1 23 -1
v 0 23 -1
v -5 23 -2
v -4 23 -2
v -1 23 -2
v 0 23 -2
v 7 23 -3
v 8 23 -3
v 6 24 -0
v 7 24 -0
v -4 24 -1
v -3 24 -1
v -2 24 -1
v -1 24 -1
v -4 24 -2
v -3 24 -2
v -2 24 -2
v -1 24 -2
v 6 24 -3
v 7 24 -3
v 5 25 -0
v 6 25 -0
v 5 25 -3
v 6 25 -3
v -3 27 -0
v 11 27 -0
v -3 27 -3
v 11 27 -3

# faces
f 3/1/1 2/1/1 1/1/1
f 4/1/1 2/1/1 3/1/1
f 7/1/1 6/1/1 5/1/1
f 8/1/1 6/1/1 7/1/1
f 11/1/1 10/1/1 9/1/1
f 12/1/1 10/1/1 11/1/1
f 15/1/1 14/1/1 13/1/1
f 16/1/1 14/1/1 15/1/1
f 19/1/1 18/1/1 17/1/1
f 20/1/1 18/1/1 19/1/1
f 23/1/1 22/1/1 21/1/1
f 24/1/1 22/1/1 23/1/1
f 25/2/1 24/2/1 23/2/1
f 26/2/1 24/2/1 25/2/1
f 30/2/1 28/2/1 27/2/1
f 31/2/1 28/2/1 30/2/1
f 33/1/1 31/1/1 30/1/1
f 33/1/1 32/1/1 31/1/1
f 33/1/1 30/1/1 29/1/1
f 34/1/1 32/1/1 33/1/1
f 37/1/1 36/1/1 35/1/1
f 38/1/1 36/1/1 37/1/1
f 41/1/1 40/1/1 39/1/1
f 42/1/1 40/1/1 41/1/1
f 45/1/1 44/1/1 43/1/1
f 46/1/1 44/1/1 45/1/1
f 49/1/1 48/1/1 47/1/1
f 50/1/1 48/1/1 49/1/1
f 53/1/1 52/1/1 51/1/1
f 54/1/1 52/1/1 53/1/1
f 57/1/1 56/1/1 55/1/1
f 58/1/1 56/1/1 57/1/1
f 61/4/1 60/4/1 59/4/1
f 62/4/1 60/4/1 61/4/1
f 65/1/1 64/1/1 63/1/1
f 66/1/1 64/1/1 65/1/1
f 69/4/1 68/4/1 67/4/1
f 70/4/1 68/4/1 69/4/1
f 73/1/1 72/1/1 71/1/1
f 74/1/1 72/1/1 73/1/1
f 79/4/1 76/4/1 75/4/1
f 80/4/1 76/4/1 79/4/1
f 81/4/1 78/4/1 77/4/1
f 82/4/1 78/4/1 81/4/1
f 83/4/1 76/4/1 80/4/1
f 84/4/1 76/4/1 83/4/1
f 85/4/1 81/4/1 77/4/1
f 86/4/1 81/4/1 85/4/1
f 87/1/1 85/1/1 84/1/1
f 88/1/1 85/1/1 87/1/1
f 91/1/1 90/1/1 89/1/1
f 92/1/1 90/1/1 91/1/1
f 93/1/2 94/1/2 95/1/2
f 95/1/2 94/1/2 96/1/2
f 97/1/2 98/1/2 99/1/2
f 99/1/2 98/1/2 100/1/2
f 101/1/2 102/1/2 103/1/2
f 103/1/2 102/1/2 104/1/2
f 105/1/2 106/1/2 107/1/2
f 107/1/2 106/1/2 108/1/2
f 107/2/2 108/2/2 109/2/2
f 109/2/2 108/2/2 110/2/2
f 111/2/2 112/2/2 113/2/2
f 113/2/2 112/2/2 114/2/2
f 115/1/2 116/1/2 117/1/2
f 117/1/2 116/1/2 118/1/2
f 119/1/2 120/1/2 121/1/2
f 121/1/2 120/1/2 122/1/2
f 123/1/2 124/1/2 125/1/2
f 125/1/2 124/1/2 126/1/2
f 127/1/2 128/1/2 129/1/2
f 129/1/2 128/1/2 130/1/2
f 131/1/2 132/1/2 133/1/2
f 133/1/2 132/1/2 134/1/2
f 135/1/2 136/1/2 137/1/2
f 137/1/2 136/1/2 138/1/2
f 139/1/2 140/1/2 141/1/2
f 141/1/2 140/1/2 142/1/2
f 143/1/2 144/1/2 145/1/2
f 145/1/2 144/1/2 146/1/2
f 147/4/2 148/4/2 151/4/2
f 151/4/2 148/4/2 152/4/2
f 149/4/2 150/4/2 153/4/2
f 153/4/2 150/4/2 154/4/2
f 152/4/2 148/4/2 155/4/2
f 155/4/2 148/4/2 156/4/2
f 149/4/2 153/4/2 157/4/2
f 157/4/2 153/4/2 158/4/2
f 156/1/2 157/1/2 159/1/2
f 159/1/2 157/1/2 160/1/2
f 161/4/2 162/4/2 163/4/2
f 163/4/2 162/4/2 164/4/2
f 165/4/2 166/4/2 167/4/2
f 167/4/2 166/4/2 168/4/2
f 171/4/3 170/4/3 169/4/3
f 172/4/3 170/4/3 171/4/3
f 175/4/3 174/4/3 173/4/3
f 176/4/3 174/4/3 175/4/3
f 180/1/3 178/1/3 177/1/3
f 182/1/3 180/1/3 179/1/3
f 184/1/3 182/1/3 181/1/3
f 185/1/3 180/1/3 182/1/3
f 185/1/3 182/1/3 184/1/3
f 186/1/3 178/1/3 180/1/3
f 186/1/3 180/1/3 185/1/3
f 190/1/3 185/1/3 184/1/3
f 190/1/3 184/1/3 183/1/3
f 191/1/3 185/1/3 190/1/3
f 192/1/3 185/1/3 191/1/3
f 193/4/3 188/4/3 187/4/3
f 196/1/3 190/1/3 189/1/3
f 196/1/3 191/1/3 190/1/3
f 197/1/3 191/1/3 196/1/3
f 198/1/3 191/1/3 197/1/3
f 199/4/3 194/4/3 193/4/3
f 199/4/3 193/4/3 187/4/3
f 200/4/3 194/4/3 199/4/3
f 201/1/3 197/1/3 196/1/3
f 201/1/3 196/1/3 195/1/3
f 202/1/3 197/1/3 201/1/3
f 203/1/3 178/1/3 186/1/3
f 205/1/3 202/1/3 201/1/3
f 205/1/3 201/1/3 200/1/3
f 205/1/3 203/1/3 202/1/3
f 206/1/3 178/1/3 203/1/3
f 206/1/3 203/1/3 205/1/3
f 207/4/3 205/4/3 204/4/3
f 208/4/3 205/4/3 207/4/3
f 209/4/3 207/4/3 204/4/3
f 210/4/3 207/4/3 209/4/3
f 214/1/3 212/1/3 211/1/3
f 215/1/3 212/1/3 214/1/3
f 218/1/3 214/1/3 213/1/3
f 219/1/3 214/1/3 218/1/3
f 220/1/3 216/1/3 215/1/3
f 221/1/3 216/1/3 220/1/3
f 225/1/3 218/1/3 217/1/3
f 226/1/3 222/1/3 221/1/3
f 228/1/3 224/1/3 223/1/3
f 229/2/3 225/2/3 224/2/3
f 229/1/3 224/1/3 228/1/3
f 230/1/3 218/1/3 225/1/3
f 230/2/3 225/2/3 229/2/3
f 231/2/3 227/2/3 226/2/3
f 231/1/3 226/1/3 221/1/3
f 232/2/3 227/2/3 231/2/3
f 233/1/3 218/1/3 230/1/3
f 234/1/3 218/1/3 233/1/3
f 237/1/3 231/1/3 221/1/3
f 238/1/3 231/1/3 237/1/3
f 239/1/3 235/1/3 234/1/3
f 240/1/3 235/1/3 239/1/3
f 241/1/3 237/1/3 236/1/3
f 242/1/3 237/1/3 241/1/3
f 243/1/3 241/1/3 240/1/3
f 244/1/3 241/1/3 243/1/3
f 245/1/4 246/1/4 248/1/4
f 248/1/4 246/1/4 249/1/4
f 247/1/4 248/1/4 252/1/4
f 252/1/4 248/1/4 253/1/4
f 249/1/4 250/1/4 254/1/4
f 254/1/4 250/1/4 255/1/4
f 251/1/4 252/1/4 259/1/4
f 255/1/4 256/1/4 260/1/4
f 257/1/4 258/1/4 262/1/4
f 258/2/4 259/2/4 263/2/4
f 262/1/4 258/1/4 263/1/4
f 259/1/4 252/1/4 264/1/4
f 263/2/4 259/2/4 264/2/4
f 260/2/4 261/2/4 265/2/4
f 255/1/4 260/1/4 265/1/4
f 265/2/4 261/2/4 266/2/4
f 264/1/4 252/1/4 267/1/4
f 267/1/4 252/1/4 268/1/4
f 255/1/4 265/1/4 271/1/4
f 271/1/4 265/1/4 272/1/4
f 268/1/4 269/1/4 273/1/4
f 273/1/4 269/1/4 274/1/4
f 270/1/4 271/1/4 275/1/4
f 275/1/4 271/1/4 276/1/4
f 274/1/4 275/1/4 277/1/4
f 277/1/4 275/1/4 278/1/4
f 279/1/4 280/1/4 282/1/4
f 281/1/4 282/1/4 284/1/4
f 283/1/4 284/1/4 286/1/4
f 284/1/4 282/1/4 287/1/4
f 286/1/4 284/1/4 287/1/4
f 282/1/4 280/1/4 288/1/4
f 287/1/4 282/1/4 288/1/4
f 286/1/4 287/1/4 292/1/4
f 285/1/4 286/1/4 292/1/4
f 292/1/4 287/1/4 293/1/4
f 293/1/4 287/1/4 294/1/4
f 289/4/4 290/4/4 295/4/4
f 291/1/4 292/1/4 298/1/4
f 292/1/4 293/1/4 298/1/4
f 298/1/4 293/1/4 299/1/4
f 299/1/4 293/1/4 300/1/4
f 295/4/4 296/4/4 301/4/4
f 289/4/4 295/4/4 301/4/4
f 301/4/4 296/4/4 302/4/4
f 298/1/4 299/1/4 303/1/4
f 297/1/4 298/1/4 303/1/4
f 303/1/4 299/1/4 304/1/4
f 288/1/4 280/1/4 305/1/4
f 303/1/4 304/1/4 307/1/4
f 302/1/4 303/1/4 307/1/4
f 304/1/4 305/1/4 307/1/4
f 305/1/4 280/1/4 308/1/4
f 307/1/4 305/1/4 308/1/4
f 306/4/4 307/4/4 309/4/4
f 309/4/4 307/4/4 310/4/4
f 306/4/4 309/4/4 311/4/4
f 311/4/4 309/4/4 312/4/4
f 313/4/4 314/4/4 315/4/4
f 315/4/4 314/4/4 316/4/4
f 317/4/4 318/4/4 319/4/4
f 319/4/4 318/4/4 320/4/4
f 324/4/5 322/4/5 321/4/5
f 325/4/5 322/4/5 324/4/5
f 327/4/5 324/4/5 323/4/5
f 328/3/5 325/3/5 324/3/5
f 328/4/5 324/4/5 327/4/5
f 329/4/5 326/4/5 325/4/5
f 329/3/5 325/3/5 328/3/5
f 330/4/5 326/4/5 329/4/5
f 331/4/5 329/4/5 328/4/5
f 332/4/5 329/4/5 331/4/5
f 335/1/5 334/1/5 333/1/5
f 336/1/5 334/1/5 335/1/5
f 341/1/5 338/1/5 337/1/5
f 342/1/5 338/1/5 341/1/5
f 343/1/5 340/1/5 339/1/5
f 344/1/5 340/1/5 343/1/5
f 349/1/5 346/1/5 345/1/5
f 350/1/5 346/1/5 349/1/5
f 351/1/5 348/1/5 347/1/5
f 352/1/5 348/1/5 351/1/5
f 357/1/5 354/1/5 353/1/5
f 358/1/5 354/1/5 357/1/5
f 359/1/5 356/1/5 355/1/5
f 360/1/5 356/1/5 359/1/5
f 363/1/5 362/1/5 361/1/5
f 364/1/5 362/1/5 363/1/5
f 371/1/5 368/1/5 367/1/5
f 372/1/5 368/1/5 371/1/5
f 373/1/5 370/1/5 369/1/5
f 374/1/5 370/1/5 373/1/5
f 375/1/5 366/1/5 365/1/5
f 376/1/5 366/1/5 375/1/5
f 381/1/5 380/1/5 379/1/5
f 382/1/5 380/1/5 381/1/5
f 383/1/5 378/1/5 377/1/5
f 384/1/5 378/1/5 383/1/5
f 387/1/5 386/1/5 385/1/5
f 388/1/5 386/1/5 387/1/5
f 391/1/5 390/1/5 389/1/5
f 392/1/5 390/1/5 391/1/5
f 397/1/5 394/1/5 393/1/5
f 398/1/5 394/1/5 397/1/5
f 400/1/5 394/1/5 398/1/5
f 401/1/5 400/1/5 399/1/5
f 402/1/5 394/1/5 400/1/5
f 402/1/5 400/1/5 401/1/5
f 403/1/5 396/1/5 395/1/5
f 404/1/5 396/1/5 403/1/5
f 405/4/6 406/4/6 407/4/6
f 407/4/6 406/4/6 408/4/6
f 409/4/6 410/4/6 413/4/6
f 413/4/6 410/4/6 414/4/6
f 411/4/6 412/4/6 415/4/6
f 415/4/6 412/4/6 416/4/6
f 417/4/6 418/4/6 419/4/6
f 419/4/6 418/4/6 420/4/6
f 421/4/6 422/4/6 424/4/6
f 424/4/6 422/4/6 425/4/6
f 423/4/6 424/4/6 427/4/6
f 427/4/6 424/4/6 428/4/6
f 425/4/6 426/4/6 429/4/6
f 429/4/6 426/4/6 430/4/6
f 428/4/6 429/4/6 431/4/6
f 431/4/6 429/4/6 432/4/6
f 433/1/6 434/1/6 435/1/6
f 435/1/6 434/1/6 436/1/6
f 437/1/6 438/1/6 441/1/6
f 441/1/6 438/1/6 442/1/6
f 439/1/6 440/1/6 443/1/6
f 443/1/6 440/1/6 444/1/6
f 445/1/6 446/1/6 449/1/6
f 449/1/6 446/1/6 450/1/6
f 447/1/6 448/1/6 451/1/6
f 451/1/6 448/1/6 452/1/6
f 455/1/6 456/1/6 459/1/6
f 459/1/6 456/1/6 460/1/6
f 457/1/6 458/1/6 461/1/6
f 461/1/6 458/1/6 462/1/6
f 453/1/6 454/1/6 463/1/6
f 463/1/6 454/1/6 464/1/6
f 467/1/6 468/1/6 471/1/6
f 471/1/6 468/1/6 472/1/6
f 469/1/6 470/1/6 473/1/6
f 473/1/6 470/1/6 474/1/6
f 465/1/6 466/1/6 475/1/6
f 475/1/6 466/1/6 476/1/6
f 477/1/6 478/1/6 479/1/6
f 479/1/6 478/1/6 480/1/6
f 481/1/6 482/1/6 483/1/6
f 483/1/6 482/1/6 484/1/6
