# MagicaVoxel @ Ephtracy

# group
g Viselitsa_1_mistake

# material
mtllib Viselitsa_1_mistake.mtl
usemtl palette

# normals
vn -1 0 0
vn 1 0 0
vn 0 0 1
vn 0 0 -1
vn 0 -1 0
vn 0 1 0

# texcoords
vt 0.970703 0.5
vt 0.974609 0.5
vt 0.978516 0.5
vt 0.990234 0.5

# verts
v -6 19 -1
v -6 19 -2
v -6 22 -1
v -6 22 -2
v -5 18 -1
v -5 18 -2
v -5 19 -1
v -5 19 -2
v -5 22 -1
v -5 22 -2
v -5 23 -1
v -5 23 -2
v -4 17 -1
v -4 17 -2
v -4 18 -1
v -4 18 -2
v -4 23 -1
v -4 23 -2
v -4 24 -1
v -4 24 -2
v -3 24 -1
v -3 24 -2
v -3 26 -0
v -3 26 -1
v -3 26 -2
v -3 26 -3
v -3 27 -0
v -3 27 -3
v -1 18 -1
v -1 18 -2
v -1 19 -1
v -1 19 -2
v -1 22 -1
v -1 22 -2
v -1 23 -1
v -1 23 -2
v 0 19 -1
v 0 19 -2
v 0 22 -1
v 0 22 -2
v 3 25 -0
v 3 25 -3
v 3 26 -0
v 3 26 -3
v 4 24 -0
v 4 24 -3
v 4 25 -0
v 4 25 -3
v 5 23 -0
v 5 23 -3
v 5 24 -0
v 5 24 -3
v 6 0 -0
v 6 0 -3
v 6 1 -0
v 6 1 -3
v 6 22 -0
v 6 22 -3
v 6 23 -0
v 6 23 -3
v 7 1 -0
v 7 1 -3
v 7 2 -0
v 7 2 -3
v 7 21 -0
v 7 21 -3
v 7 22 -0
v 7 22 -3
v 8 0 2
v 8 0 -0
v 8 0 -3
v 8 0 -5
v 8 1 2
v 8 1 1
v 8 1 -4
v 8 1 -5
v 8 2 1
v 8 2 -0
v 8 2 -3
v 8 2 -4
v 8 21 -0
v 8 21 -3
v 8 23 -0
v 8 23 -3
v 8 26 -0
v 8 26 -3
v -5 19 -1
v -5 19 -2
v -5 22 -1
v -5 22 -2
v -4 18 -1
v -4 18 -2
v -4 19 -1
v -4 19 -2
v -4 22 -1
v -4 22 -2
v -4 23 -1
v -4 23 -2
v -2 24 -1
v -2 24 -2
v -2 26 -1
v -2 26 -2
v -1 17 -1
v -1 17 -2
v -1 18 -1
v -1 18 -2
v -1 23 -1
v -1 23 -2
v -1 24 -1
v -1 24 -2
v 0 18 -1
v 0 18 -2
v 0 19 -1
v 0 19 -2
v 0 22 -1
v 0 22 -2
v 0 23 -1
v 0 23 -2
v 1 19 -1
v 1 19 -2
v 1 22 -1
v 1 22 -2
v 5 25 -0
v 5 25 -3
v 5 26 -0
v 5 26 -3
v 6 24 -0
v 6 24 -3
v 6 25 -0
v 6 25 -3
v 7 23 -0
v 7 23 -3
v 7 24 -0
v 7 24 -3
v 11 0 2
v 11 0 -0
v 11 0 -3
v 11 0 -5
v 11 1 2
v 11 1 1
v 11 1 -4
v 11 1 -5
v 11 2 1
v 11 2 -0
v 11 2 -3
v 11 2 -4
v 11 27 -0
v 11 27 -3
v 12 1 -0
v 12 1 -3
v 12 2 -0
v 12 2 -3
v 13 0 -0
v 13 0 -3
v 13 1 -0
v 13 1 -3
v 8 0 2
v 8 1 2
v 11 0 2
v 11 1 2
v 8 1 1
v 8 2 1
v 11 1 1
v 11 2 1
v -3 26 -0
v -3 27 -0
v 3 25 -0
v 3 26 -0
v 4 24 -0
v 4 25 -0
v 5 23 -0
v 5 24 -0
v 5 25 -0
v 5 26 -0
v 6 0 -0
v 6 1 -0
v 6 22 -0
v 6 23 -0
v 6 24 -0
v 6 25 -0
v 7 1 -0
v 7 2 -0
v 7 21 -0
v 7 22 -0
v 7 23 -0
v 7 24 -0
v 8 0 -0
v 8 2 -0
v 8 21 -0
v 8 23 -0
v 8 26 -0
v 11 0 -0
v 11 2 -0
v 11 27 -0
v 12 1 -0
v 12 2 -0
v 13 0 -0
v 13 1 -0
v -6 19 -1
v -6 22 -1
v -5 18 -1
v -5 19 -1
v -5 22 -1
v -5 23 -1
v -4 17 -1
v -4 18 -1
v -4 19 -1
v -4 22 -1
v -4 23 -1
v -4 24 -1
v -3 24 -1
v -3 26 -1
v -2 24 -1
v -2 26 -1
v -1 17 -1
v -1 18 -1
v -1 19 -1
v -1 22 -1
v -1 23 -1
v -1 24 -1
v 0 18 -1
v 0 19 -1
v 0 22 -1
v 0 23 -1
v 1 19 -1
v 1 22 -1
v -6 19 -2
v -6 22 -2
v -5 18 -2
v -5 19 -2
v -5 22 -2
v -5 23 -2
v -4 17 -2
v -4 18 -2
v -4 19 -2
v -4 22 -2
v -4 23 -2
v -4 24 -2
v -3 24 -2
v -3 26 -2
v -2 24 -2
v -2 26 -2
v -1 17 -2
v -1 18 -2
v -1 19 -2
v -1 22 -2
v -1 23 -2
v -1 24 -2
v 0 18 -2
v 0 19 -2
v 0 22 -2
v 0 23 -2
v 1 19 -2
v 1 22 -2
v -3 26 -3
v -3 27 -3
v 3 25 -3
v 3 26 -3
v 4 24 -3
v 4 25 -3
v 5 23 -3
v 5 24 -3
v 5 25 -3
v 5 26 -3
v 6 0 -3
v 6 1 -3
v 6 22 -3
v 6 23 -3
v 6 24 -3
v 6 25 -3
v 7 1 -3
v 7 2 -3
v 7 21 -3
v 7 22 -3
v 7 23 -3
v 7 24 -3
v 8 0 -3
v 8 2 -3
v 8 21 -3
v 8 23 -3
v 8 26 -3
v 11 0 -3
v 11 2 -3
v 11 27 -3
v 12 1 -3
v 12 2 -3
v 13 0 -3
v 13 1 -3
v 8 1 -4
v 8 2 -4
v 11 1 -4
v 11 2 -4
v 8 0 -5
v 8 1 -5
v 11 0 -5
v 11 1 -5
v 8 0 2
v 11 0 2
v 6 0 -0
v 8 0 -0
v 11 0 -0
v 13 0 -0
v 6 0 -3
v 8 0 -3
v 11 0 -3
v 13 0 -3
v 8 0 -5
v 11 0 -5
v -4 17 -1
v -1 17 -1
v -4 17 -2
v -1 17 -2
v -5 18 -1
v -4 18 -1
v -1 18 -1
v 0 18 -1
v -5 18 -2
v -4 18 -2
v -1 18 -2
v 0 18 -2
v -6 19 -1
v -5 19 -1
v 0 19 -1
v 1 19 -1
v -6 19 -2
v -5 19 -2
v 0 19 -2
v 1 19 -2
v 7 21 -0
v 8 21 -0
v 7 21 -3
v 8 21 -3
v 6 22 -0
v 7 22 -0
v -5 22 -1
v -4 22 -1
v -1 22 -1
v 0 22 -1
v -5 22 -2
v -4 22 -2
v -1 22 -2
v 0 22 -2
v 6 22 -3
v 7 22 -3
v 5 23 -0
v 6 23 -0
v -4 23 -1
v -1 23 -1
v -4 23 -2
v -1 23 -2
v 5 23 -3
v 6 23 -3
v 4 24 -0
v 5 24 -0
v 4 24 -3
v 5 24 -3
v 3 25 -0
v 4 25 -0
v 3 25 -3
v 4 25 -3
v -3 26 -0
v 3 26 -0
v 5 26 -0
v 8 26 -0
v -3 26 -1
v -2 26 -1
v -3 26 -2
v -2 26 -2
v -3 26 -3
v 3 26 -3
v 5 26 -3
v 8 26 -3
v 8 1 2
v 11 1 2
v 8 1 1
v 11 1 1
v 6 1 -0
v 7 1 -0
v 12 1 -0
v 13 1 -0
v 6 1 -3
v 7 1 -3
v 12 1 -3
v 13 1 -3
v 8 1 -4
v 11 1 -4
v 8 1 -5
v 11 1 -5
v 8 2 1
v 11 2 1
v 7 2 -0
v 8 2 -0
v 11 2 -0
v 12 2 -0
v 7 2 -3
v 8 2 -3
v 11 2 -3
v 12 2 -3
v 8 2 -4
v 11 2 -4
v -4 18 -1
v -1 18 -1
v -4 18 -2
v -1 18 -2
v -5 19 -1
v -4 19 -1
v -1 19 -1
v 0 19 -1
v -5 19 -2
v -4 19 -2
v -1 19 -2
v 0 19 -2
v -6 22 -1
v -5 22 -1
v 0 22 -1
v 1 22 -1
v -6 22 -2
v -5 22 -2
v 0 22 -2
v 1 22 -2
v 7 23 -0
v 8 23 -0
v -5 23 -1
v -4 23 -1
v -1 23 -1
v 0 23 -1
v -5 23 -2
v -4 23 -2
v -1 23 -2
v 0 23 -2
v 7 23 -3
v 8 23 -3
v 6 24 -0
v 7 24 -0
v -4 24 -1
v -3 24 -1
v -2 24 -1
v -1 24 -1
v -4 24 -2
v -3 24 -2
v -2 24 -2
v -1 24 -2
v 6 24 -3
v 7 24 -3
v 5 25 -0
v 6 25 -0
v 5 25 -3
v 6 25 -3
v -3 27 -0
v 11 27 -0
v -3 27 -3
v 11 27 -3

# faces
f 3/1/1 2/1/1 1/1/1
f 4/1/1 2/1/1 3/1/1
f 7/1/1 6/1/1 5/1/1
f 8/1/1 6/1/1 7/1/1
f 11/1/1 10/1/1 9/1/1
f 12/1/1 10/1/1 11/1/1
f 15/1/1 14/1/1 13/1/1
f 16/1/1 14/1/1 15/1/1
f 19/1/1 18/1/1 17/1/1
f 20/1/1 18/1/1 19/1/1
f 24/2/1 22/2/1 21/2/1
f 25/2/1 22/2/1 24/2/1
f 27/1/1 24/1/1 23/1/1
f 27/1/1 26/1/1 25/1/1
f 27/1/1 25/1/1 24/1/1
f 28/1/1 26/1/1 27/1/1
f 31/1/1 30/1/1 29/1/1
f 32/1/1 30/1/1 31/1/1
f 35/1/1 34/1/1 33/1/1
f 36/1/1 34/1/1 35/1/1
f 39/1/1 38/1/1 37/1/1
f 40/1/1 38/1/1 39/1/1
f 43/1/1 42/1/1 41/1/1
f 44/1/1 42/1/1 43/1/1
f 47/1/1 46/1/1 45/1/1
f 48/1/1 46/1/1 47/1/1
f 51/1/1 50/1/1 49/1/1
f 52/1/1 50/1/1 51/1/1
f 55/4/1 54/4/1 53/4/1
f 56/4/1 54/4/1 55/4/1
f 59/1/1 58/1/1 57/1/1
f 60/1/1 58/1/1 59/1/1
f 63/4/1 62/4/1 61/4/1
f 64/4/1 62/4/1 63/4/1
f 67/1/1 66/1/1 65/1/1
f 68/1/1 66/1/1 67/1/1
f 73/4/1 70/4/1 69/4/1
f 74/4/1 70/4/1 73/4/1
f 75/4/1 72/4/1 71/4/1
f 76/4/1 72/4/1 75/4/1
f 77/4/1 70/4/1 74/4/1
f 78/4/1 70/4/1 77/4/1
f 79/4/1 75/4/1 71/4/1
f 80/4/1 75/4/1 79/4/1
f 81/1/1 79/1/1 78/1/1
f 82/1/1 79/1/1 81/1/1
f 85/1/1 84/1/1 83/1/1
f 86/1/1 84/1/1 85/1/1
f 87/1/2 88/1/2 89/1/2
f 89/1/2 88/1/2 90/1/2
f 91/1/2 92/1/2 93/1/2
f 93/1/2 92/1/2 94/1/2
f 95/1/2 96/1/2 97/1/2
f 97/1/2 96/1/2 98/1/2
f 99/2/2 100/2/2 101/2/2
f 101/2/2 100/2/2 102/2/2
f 103/1/2 104/1/2 105/1/2
f 105/1/2 104/1/2 106/1/2
f 107/1/2 108/1/2 109/1/2
f 109/1/2 108/1/2 110/1/2
f 111/1/2 112/1/2 113/1/2
f 113/1/2 112/1/2 114/1/2
f 115/1/2 116/1/2 117/1/2
f 117/1/2 116/1/2 118/1/2
f 119/1/2 120/1/2 121/1/2
f 121/1/2 120/1/2 122/1/2
f 123/1/2 124/1/2 125/1/2
f 125/1/2 124/1/2 126/1/2
f 127/1/2 128/1/2 129/1/2
f 129/1/2 128/1/2 130/1/2
f 131/1/2 132/1/2 133/1/2
f 133/1/2 132/1/2 134/1/2
f 135/4/2 136/4/2 139/4/2
f 139/4/2 136/4/2 140/4/2
f 137/4/2 138/4/2 141/4/2
f 141/4/2 138/4/2 142/4/2
f 140/4/2 136/4/2 143/4/2
f 143/4/2 136/4/2 144/4/2
f 137/4/2 141/4/2 145/4/2
f 145/4/2 141/4/2 146/4/2
f 144/1/2 145/1/2 147/1/2
f 147/1/2 145/1/2 148/1/2
f 149/4/2 150/4/2 151/4/2
f 151/4/2 150/4/2 152/4/2
f 153/4/2 154/4/2 155/4/2
f 155/4/2 154/4/2 156/4/2
f 159/4/3 158/4/3 157/4/3
f 160/4/3 158/4/3 159/4/3
f 163/4/3 162/4/3 161/4/3
f 164/4/3 162/4/3 163/4/3
f 168/1/3 166/1/3 165/1/3
f 170/1/3 168/1/3 167/1/3
f 172/1/3 170/1/3 169/1/3
f 173/1/3 168/1/3 170/1/3
f 173/1/3 170/1/3 172/1/3
f 174/1/3 166/1/3 168/1/3
f 174/1/3 168/1/3 173/1/3
f 178/1/3 173/1/3 172/1/3
f 178/1/3 172/1/3 171/1/3
f 179/1/3 173/1/3 178/1/3
f 180/1/3 173/1/3 179/1/3
f 181/4/3 176/4/3 175/4/3
f 184/1/3 178/1/3 177/1/3
f 184/1/3 179/1/3 178/1/3
f 185/1/3 179/1/3 184/1/3
f 186/1/3 179/1/3 185/1/3
f 187/4/3 182/4/3 181/4/3
f 187/4/3 181/4/3 175/4/3
f 188/4/3 182/4/3 187/4/3
f 189/1/3 185/1/3 184/1/3
f 189/1/3 184/1/3 183/1/3
f 190/1/3 185/1/3 189/1/3
f 191/1/3 166/1/3 174/1/3
f 193/1/3 190/1/3 189/1/3
f 193/1/3 189/1/3 188/1/3
f 193/1/3 191/1/3 190/1/3
f 194/1/3 166/1/3 191/1/3
f 194/1/3 191/1/3 193/1/3
f 195/4/3 193/4/3 192/4/3
f 196/4/3 193/4/3 195/4/3
f 197/4/3 195/4/3 192/4/3
f 198/4/3 195/4/3 197/4/3
f 202/1/3 200/1/3 199/1/3
f 203/1/3 200/1/3 202/1/3
f 206/1/3 202/1/3 201/1/3
f 207/1/3 202/1/3 206/1/3
f 208/1/3 204/1/3 203/1/3
f 209/1/3 204/1/3 208/1/3
f 211/1/3 210/1/3 209/1/3
f 213/1/3 211/1/3 209/1/3
f 213/2/3 212/2/3 211/2/3
f 214/2/3 212/2/3 213/2/3
f 215/1/3 206/1/3 205/1/3
f 216/1/3 206/1/3 215/1/3
f 219/1/3 213/1/3 209/1/3
f 220/1/3 213/1/3 219/1/3
f 221/1/3 217/1/3 216/1/3
f 222/1/3 217/1/3 221/1/3
f 223/1/3 219/1/3 218/1/3
f 224/1/3 219/1/3 223/1/3
f 225/1/3 223/1/3 222/1/3
f 226/1/3 223/1/3 225/1/3
f 227/1/4 228/1/4 230/1/4
f 230/1/4 228/1/4 231/1/4
f 229/1/4 230/1/4 234/1/4
f 234/1/4 230/1/4 235/1/4
f 231/1/4 232/1/4 236/1/4
f 236/1/4 232/1/4 237/1/4
f 237/1/4 238/1/4 239/1/4
f 237/1/4 239/1/4 241/1/4
f 239/2/4 240/2/4 241/2/4
f 241/2/4 240/2/4 242/2/4
f 233/1/4 234/1/4 243/1/4
f 243/1/4 234/1/4 244/1/4
f 237/1/4 241/1/4 247/1/4
f 247/1/4 241/1/4 248/1/4
f 244/1/4 245/1/4 249/1/4
f 249/1/4 245/1/4 250/1/4
f 246/1/4 247/1/4 251/1/4
f 251/1/4 247/1/4 252/1/4
f 250/1/4 251/1/4 253/1/4
f 253/1/4 251/1/4 254/1/4
f 255/1/4 256/1/4 258/1/4
f 257/1/4 258/1/4 260/1/4
f 259/1/4 260/1/4 262/1/4
f 260/1/4 258/1/4 263/1/4
f 262/1/4 260/1/4 263/1/4
f 258/1/4 256/1/4 264/1/4
f 263/1/4 258/1/4 264/1/4
f 262/1/4 263/1/4 268/1/4
f 261/1/4 262/1/4 268/1/4
f 268/1/4 263/1/4 269/1/4
f 269/1/4 263/1/4 270/1/4
f 265/4/4 266/4/4 271/4/4
f 267/1/4 268/1/4 274/1/4
f 268/1/4 269/1/4 274/1/4
f 274/1/4 269/1/4 275/1/4
f 275/1/4 269/1/4 276/1/4
f 271/4/4 272/4/4 277/4/4
f 265/4/4 271/4/4 277/4/4
f 277/4/4 272/4/4 278/4/4
f 274/1/4 275/1/4 279/1/4
f 273/1/4 274/1/4 279/1/4
f 279/1/4 275/1/4 280/1/4
f 264/1/4 256/1/4 281/1/4
f 279/1/4 280/1/4 283/1/4
f 278/1/4 279/1/4 283/1/4
f 280/1/4 281/1/4 283/1/4
f 281/1/4 256/1/4 284/1/4
f 283/1/4 281/1/4 284/1/4
f 282/4/4 283/4/4 285/4/4
f 285/4/4 283/4/4 286/4/4
f 282/4/4 285/4/4 287/4/4
f 287/4/4 285/4/4 288/4/4
f 289/4/4 290/4/4 291/4/4
f 291/4/4 290/4/4 292/4/4
f 293/4/4 294/4/4 295/4/4
f 295/4/4 294/4/4 296/4/4
f 300/4/5 298/4/5 297/4/5
f 301/4/5 298/4/5 300/4/5
f 303/4/5 300/4/5 299/4/5
f 304/3/5 301/3/5 300/3/5
f 304/4/5 300/4/5 303/4/5
f 305/4/5 302/4/5 301/4/5
f 305/3/5 301/3/5 304/3/5
f 306/4/5 302/4/5 305/4/5
f 307/4/5 305/4/5 304/4/5
f 308/4/5 305/4/5 307/4/5
f 311/1/5 310/1/5 309/1/5
f 312/1/5 310/1/5 311/1/5
f 317/1/5 314/1/5 313/1/5
f 318/1/5 314/1/5 317/1/5
f 319/1/5 316/1/5 315/1/5
f 320/1/5 316/1/5 319/1/5
f 325/1/5 322/1/5 321/1/5
f 326/1/5 322/1/5 325/1/5
f 327/1/5 324/1/5 323/1/5
f 328/1/5 324/1/5 327/1/5
f 331/1/5 330/1/5 329/1/5
f 332/1/5 330/1/5 331/1/5
f 339/1/5 336/1/5 335/1/5
f 340/1/5 336/1/5 339/1/5
f 341/1/5 338/1/5 337/1/5
f 342/1/5 338/1/5 341/1/5
f 343/1/5 334/1/5 333/1/5
f 344/1/5 334/1/5 343/1/5
f 349/1/5 348/1/5 347/1/5
f 350/1/5 348/1/5 349/1/5
f 351/1/5 346/1/5 345/1/5
f 352/1/5 346/1/5 351/1/5
f 355/1/5 354/1/5 353/1/5
f 356/1/5 354/1/5 355/1/5
f 359/1/5 358/1/5 357/1/5
f 360/1/5 358/1/5 359/1/5
f 365/1/5 362/1/5 361/1/5
f 366/1/5 362/1/5 365/1/5
f 368/1/5 362/1/5 366/1/5
f 369/1/5 368/1/5 367/1/5
f 370/1/5 362/1/5 368/1/5
f 370/1/5 368/1/5 369/1/5
f 371/1/5 364/1/5 363/1/5
f 372/1/5 364/1/5 371/1/5
f 373/4/6 374/4/6 375/4/6
f 375/4/6 374/4/6 376/4/6
f 377/4/6 378/4/6 381/4/6
f 381/4/6 378/4/6 382/4/6
f 379/4/6 380/4/6 383/4/6
f 383/4/6 380/4/6 384/4/6
f 385/4/6 386/4/6 387/4/6
f 387/4/6 386/4/6 388/4/6
f 389/4/6 390/4/6 392/4/6
f 392/4/6 390/4/6 393/4/6
f 391/4/6 392/4/6 395/4/6
f 395/4/6 392/4/6 396/4/6
f 393/4/6 394/4/6 397/4/6
f 397/4/6 394/4/6 398/4/6
f 396/4/6 397/4/6 399/4/6
f 399/4/6 397/4/6 400/4/6
f 401/1/6 402/1/6 403/1/6
f 403/1/6 402/1/6 404/1/6
f 405/1/6 406/1/6 409/1/6
f 409/1/6 406/1/6 410/1/6
f 407/1/6 408/1/6 411/1/6
f 411/1/6 408/1/6 412/1/6
f 413/1/6 414/1/6 417/1/6
f 417/1/6 414/1/6 418/1/6
f 415/1/6 416/1/6 419/1/6
f 419/1/6 416/1/6 420/1/6
f 423/1/6 424/1/6 427/1/6
f 427/1/6 424/1/6 428/1/6
f 425/1/6 426/1/6 429/1/6
f 429/1/6 426/1/6 430/1/6
f 421/1/6 422/1/6 431/1/6
f 431/1/6 422/1/6 432/1/6
f 435/1/6 436/1/6 439/1/6
f 439/1/6 436/1/6 440/1/6
f 437/1/6 438/1/6 441/1/6
f 441/1/6 438/1/6 442/1/6
f 433/1/6 434/1/6 443/1/6
f 443/1/6 434/1/6 444/1/6
f 445/1/6 446/1/6 447/1/6
f 447/1/6 446/1/6 448/1/6
f 449/1/6 450/1/6 451/1/6
f 451/1/6 450/1/6 452/1/6
