# MagicaVoxel @ Ephtracy

# group
g Viselitsa_0_mistake

# material
mtllib Viselitsa_0_mistake.mtl
usemtl palette

# normals
vn -1 0 0
vn 1 0 0
vn 0 0 1
vn 0 0 -1
vn 0 -1 0
vn 0 1 0

# texcoords
vt 0.970703 0.5
vt 0.974609 0.5
vt 0.978516 0.5
vt 0.990234 0.5

# verts
v -3 24 -1
v -3 24 -2
v -3 26 -0
v -3 26 -1
v -3 26 -2
v -3 26 -3
v -3 27 -0
v -3 27 -3
v 3 25 -0
v 3 25 -3
v 3 26 -0
v 3 26 -3
v 4 24 -0
v 4 24 -3
v 4 25 -0
v 4 25 -3
v 5 23 -0
v 5 23 -3
v 5 24 -0
v 5 24 -3
v 6 0 -0
v 6 0 -3
v 6 1 -0
v 6 1 -3
v 6 22 -0
v 6 22 -3
v 6 23 -0
v 6 23 -3
v 7 1 -0
v 7 1 -3
v 7 2 -0
v 7 2 -3
v 7 21 -0
v 7 21 -3
v 7 22 -0
v 7 22 -3
v 8 0 2
v 8 0 -0
v 8 0 -3
v 8 0 -5
v 8 1 2
v 8 1 1
v 8 1 -4
v 8 1 -5
v 8 2 1
v 8 2 -0
v 8 2 -3
v 8 2 -4
v 8 21 -0
v 8 21 -3
v 8 23 -0
v 8 23 -3
v 8 26 -0
v 8 26 -3
v -2 24 -1
v -2 24 -2
v -2 26 -1
v -2 26 -2
v 5 25 -0
v 5 25 -3
v 5 26 -0
v 5 26 -3
v 6 24 -0
v 6 24 -3
v 6 25 -0
v 6 25 -3
v 7 23 -0
v 7 23 -3
v 7 24 -0
v 7 24 -3
v 11 0 2
v 11 0 -0
v 11 0 -3
v 11 0 -5
v 11 1 2
v 11 1 1
v 11 1 -4
v 11 1 -5
v 11 2 1
v 11 2 -0
v 11 2 -3
v 11 2 -4
v 11 27 -0
v 11 27 -3
v 12 1 -0
v 12 1 -3
v 12 2 -0
v 12 2 -3
v 13 0 -0
v 13 0 -3
v 13 1 -0
v 13 1 -3
v 8 0 2
v 8 1 2
v 11 0 2
v 11 1 2
v 8 1 1
v 8 2 1
v 11 1 1
v 11 2 1
v -3 26 -0
v -3 27 -0
v 3 25 -0
v 3 26 -0
v 4 24 -0
v 4 25 -0
v 5 23 -0
v 5 24 -0
v 5 25 -0
v 5 26 -0
v 6 0 -0
v 6 1 -0
v 6 22 -0
v 6 23 -0
v 6 24 -0
v 6 25 -0
v 7 1 -0
v 7 2 -0
v 7 21 -0
v 7 22 -0
v 7 23 -0
v 7 24 -0
v 8 0 -0
v 8 2 -0
v 8 21 -0
v 8 23 -0
v 8 26 -0
v 11 0 -0
v 11 2 -0
v 11 27 -0
v 12 1 -0
v 12 2 -0
v 13 0 -0
v 13 1 -0
v -3 24 -1
v -3 26 -1
v -2 24 -1
v -2 26 -1
v -3 24 -2
v -3 26 -2
v -2 24 -2
v -2 26 -2
v -3 26 -3
v -3 27 -3
v 3 25 -3
v 3 26 -3
v 4 24 -3
v 4 25 -3
v 5 23 -3
v 5 24 -3
v 5 25 -3
v 5 26 -3
v 6 0 -3
v 6 1 -3
v 6 22 -3
v 6 23 -3
v 6 24 -3
v 6 25 -3
v 7 1 -3
v 7 2 -3
v 7 21 -3
v 7 22 -3
v 7 23 -3
v 7 24 -3
v 8 0 -3
v 8 2 -3
v 8 21 -3
v 8 23 -3
v 8 26 -3
v 11 0 -3
v 11 2 -3
v 11 27 -3
v 12 1 -3
v 12 2 -3
v 13 0 -3
v 13 1 -3
v 8 1 -4
v 8 2 -4
v 11 1 -4
v 11 2 -4
v 8 0 -5
v 8 1 -5
v 11 0 -5
v 11 1 -5
v 8 0 2
v 11 0 2
v 6 0 -0
v 8 0 -0
v 11 0 -0
v 13 0 -0
v 6 0 -3
v 8 0 -3
v 11 0 -3
v 13 0 -3
v 8 0 -5
v 11 0 -5
v 7 21 -0
v 8 21 -0
v 7 21 -3
v 8 21 -3
v 6 22 -0
v 7 22 -0
v 6 22 -3
v 7 22 -3
v 5 23 -0
v 6 23 -0
v 5 23 -3
v 6 23 -3
v 4 24 -0
v 5 24 -0
v -3 24 -1
v -2 24 -1
v -3 24 -2
v -2 24 -2
v 4 24 -3
v 5 24 -3
v 3 25 -0
v 4 25 -0
v 3 25 -3
v 4 25 -3
v -3 26 -0
v 3 26 -0
v 5 26 -0
v 8 26 -0
v -3 26 -1
v -2 26 -1
v -3 26 -2
v -2 26 -2
v -3 26 -3
v 3 26 -3
v 5 26 -3
v 8 26 -3
v 8 1 2
v 11 1 2
v 8 1 1
v 11 1 1
v 6 1 -0
v 7 1 -0
v 12 1 -0
v 13 1 -0
v 6 1 -3
v 7 1 -3
v 12 1 -3
v 13 1 -3
v 8 1 -4
v 11 1 -4
v 8 1 -5
v 11 1 -5
v 8 2 1
v 11 2 1
v 7 2 -0
v 8 2 -0
v 11 2 -0
v 12 2 -0
v 7 2 -3
v 8 2 -3
v 11 2 -3
v 12 2 -3
v 8 2 -4
v 11 2 -4
v 7 23 -0
v 8 23 -0
v 7 23 -3
v 8 23 -3
v 6 24 -0
v 7 24 -0
v 6 24 -3
v 7 24 -3
v 5 25 -0
v 6 25 -0
v 5 25 -3
v 6 25 -3
v -3 27 -0
v 11 27 -0
v -3 27 -3
v 11 27 -3

# faces
f 4/2/1 2/2/1 1/2/1
f 5/2/1 2/2/1 4/2/1
f 7/1/1 4/1/1 3/1/1
f 7/1/1 6/1/1 5/1/1
f 7/1/1 5/1/1 4/1/1
f 8/1/1 6/1/1 7/1/1
f 11/1/1 10/1/1 9/1/1
f 12/1/1 10/1/1 11/1/1
f 15/1/1 14/1/1 13/1/1
f 16/1/1 14/1/1 15/1/1
f 19/1/1 18/1/1 17/1/1
f 20/1/1 18/1/1 19/1/1
f 23/4/1 22/4/1 21/4/1
f 24/4/1 22/4/1 23/4/1
f 27/1/1 26/1/1 25/1/1
f 28/1/1 26/1/1 27/1/1
f 31/4/1 30/4/1 29/4/1
f 32/4/1 30/4/1 31/4/1
f 35/1/1 34/1/1 33/1/1
f 36/1/1 34/1/1 35/1/1
f 41/4/1 38/4/1 37/4/1
f 42/4/1 38/4/1 41/4/1
f 43/4/1 40/4/1 39/4/1
f 44/4/1 40/4/1 43/4/1
f 45/4/1 38/4/1 42/4/1
f 46/4/1 38/4/1 45/4/1
f 47/4/1 43/4/1 39/4/1
f 48/4/1 43/4/1 47/4/1
f 49/1/1 47/1/1 46/1/1
f 50/1/1 47/1/1 49/1/1
f 53/1/1 52/1/1 51/1/1
f 54/1/1 52/1/1 53/1/1
f 55/2/2 56/2/2 57/2/2
f 57/2/2 56/2/2 58/2/2
f 59/1/2 60/1/2 61/1/2
f 61/1/2 60/1/2 62/1/2
f 63/1/2 64/1/2 65/1/2
f 65/1/2 64/1/2 66/1/2
f 67/1/2 68/1/2 69/1/2
f 69/1/2 68/1/2 70/1/2
f 71/4/2 72/4/2 75/4/2
f 75/4/2 72/4/2 76/4/2
f 73/4/2 74/4/2 77/4/2
f 77/4/2 74/4/2 78/4/2
f 76/4/2 72/4/2 79/4/2
f 79/4/2 72/4/2 80/4/2
f 73/4/2 77/4/2 81/4/2
f 81/4/2 77/4/2 82/4/2
f 80/1/2 81/1/2 83/1/2
f 83/1/2 81/1/2 84/1/2
f 85/4/2 86/4/2 87/4/2
f 87/4/2 86/4/2 88/4/2
f 89/4/2 90/4/2 91/4/2
f 91/4/2 90/4/2 92/4/2
f 95/4/3 94/4/3 93/4/3
f 96/4/3 94/4/3 95/4/3
f 99/4/3 98/4/3 97/4/3
f 100/4/3 98/4/3 99/4/3
f 104/1/3 102/1/3 101/1/3
f 106/1/3 104/1/3 103/1/3
f 108/1/3 106/1/3 105/1/3
f 109/1/3 104/1/3 106/1/3
f 109/1/3 106/1/3 108/1/3
f 110/1/3 102/1/3 104/1/3
f 110/1/3 104/1/3 109/1/3
f 114/1/3 109/1/3 108/1/3
f 114/1/3 108/1/3 107/1/3
f 115/1/3 109/1/3 114/1/3
f 116/1/3 109/1/3 115/1/3
f 117/4/3 112/4/3 111/4/3
f 120/1/3 114/1/3 113/1/3
f 120/1/3 115/1/3 114/1/3
f 121/1/3 115/1/3 120/1/3
f 122/1/3 115/1/3 121/1/3
f 123/4/3 118/4/3 117/4/3
f 123/4/3 117/4/3 111/4/3
f 124/4/3 118/4/3 123/4/3
f 125/1/3 121/1/3 120/1/3
f 125/1/3 120/1/3 119/1/3
f 126/1/3 121/1/3 125/1/3
f 127/1/3 102/1/3 110/1/3
f 129/1/3 126/1/3 125/1/3
f 129/1/3 125/1/3 124/1/3
f 129/1/3 127/1/3 126/1/3
f 130/1/3 102/1/3 127/1/3
f 130/1/3 127/1/3 129/1/3
f 131/4/3 129/4/3 128/4/3
f 132/4/3 129/4/3 131/4/3
f 133/4/3 131/4/3 128/4/3
f 134/4/3 131/4/3 133/4/3
f 137/2/3 136/2/3 135/2/3
f 138/2/3 136/2/3 137/2/3
f 139/2/4 140/2/4 141/2/4
f 141/2/4 140/2/4 142/2/4
f 143/1/4 144/1/4 146/1/4
f 145/1/4 146/1/4 148/1/4
f 147/1/4 148/1/4 150/1/4
f 148/1/4 146/1/4 151/1/4
f 150/1/4 148/1/4 151/1/4
f 146/1/4 144/1/4 152/1/4
f 151/1/4 146/1/4 152/1/4
f 150/1/4 151/1/4 156/1/4
f 149/1/4 150/1/4 156/1/4
f 156/1/4 151/1/4 157/1/4
f 157/1/4 151/1/4 158/1/4
f 153/4/4 154/4/4 159/4/4
f 155/1/4 156/1/4 162/1/4
f 156/1/4 157/1/4 162/1/4
f 162/1/4 157/1/4 163/1/4
f 163/1/4 157/1/4 164/1/4
f 159/4/4 160/4/4 165/4/4
f 153/4/4 159/4/4 165/4/4
f 165/4/4 160/4/4 166/4/4
f 162/1/4 163/1/4 167/1/4
f 161/1/4 162/1/4 167/1/4
f 167/1/4 163/1/4 168/1/4
f 152/1/4 144/1/4 169/1/4
f 167/1/4 168/1/4 171/1/4
f 166/1/4 167/1/4 171/1/4
f 168/1/4 169/1/4 171/1/4
f 169/1/4 144/1/4 172/1/4
f 171/1/4 169/1/4 172/1/4
f 170/4/4 171/4/4 173/4/4
f 173/4/4 171/4/4 174/4/4
f 170/4/4 173/4/4 175/4/4
f 175/4/4 173/4/4 176/4/4
f 177/4/4 178/4/4 179/4/4
f 179/4/4 178/4/4 180/4/4
f 181/4/4 182/4/4 183/4/4
f 183/4/4 182/4/4 184/4/4
f 188/4/5 186/4/5 185/4/5
f 189/4/5 186/4/5 188/4/5
f 191/4/5 188/4/5 187/4/5
f 192/3/5 189/3/5 188/3/5
f 192/4/5 188/4/5 191/4/5
f 193/4/5 190/4/5 189/4/5
f 193/3/5 189/3/5 192/3/5
f 194/4/5 190/4/5 193/4/5
f 195/4/5 193/4/5 192/4/5
f 196/4/5 193/4/5 195/4/5
f 199/1/5 198/1/5 197/1/5
f 200/1/5 198/1/5 199/1/5
f 203/1/5 202/1/5 201/1/5
f 204/1/5 202/1/5 203/1/5
f 207/1/5 206/1/5 205/1/5
f 208/1/5 206/1/5 207/1/5
f 213/2/5 212/2/5 211/2/5
f 214/2/5 212/2/5 213/2/5
f 215/1/5 210/1/5 209/1/5
f 216/1/5 210/1/5 215/1/5
f 219/1/5 218/1/5 217/1/5
f 220/1/5 218/1/5 219/1/5
f 225/1/5 222/1/5 221/1/5
f 226/1/5 222/1/5 225/1/5
f 228/1/5 222/1/5 226/1/5
f 229/1/5 228/1/5 227/1/5
f 230/1/5 222/1/5 228/1/5
f 230/1/5 228/1/5 229/1/5
f 231/1/5 224/1/5 223/1/5
f 232/1/5 224/1/5 231/1/5
f 233/4/6 234/4/6 235/4/6
f 235/4/6 234/4/6 236/4/6
f 237/4/6 238/4/6 241/4/6
f 241/4/6 238/4/6 242/4/6
f 239/4/6 240/4/6 243/4/6
f 243/4/6 240/4/6 244/4/6
f 245/4/6 246/4/6 247/4/6
f 247/4/6 246/4/6 248/4/6
f 249/4/6 250/4/6 252/4/6
f 252/4/6 250/4/6 253/4/6
f 251/4/6 252/4/6 255/4/6
f 255/4/6 252/4/6 256/4/6
f 253/4/6 254/4/6 257/4/6
f 257/4/6 254/4/6 258/4/6
f 256/4/6 257/4/6 259/4/6
f 259/4/6 257/4/6 260/4/6
f 261/1/6 262/1/6 263/1/6
f 263/1/6 262/1/6 264/1/6
f 265/1/6 266/1/6 267/1/6
f 267/1/6 266/1/6 268/1/6
f 269/1/6 270/1/6 271/1/6
f 271/1/6 270/1/6 272/1/6
f 273/1/6 274/1/6 275/1/6
f 275/1/6 274/1/6 276/1/6
